<svg width="18" height="18" viewBox="0 0 18 18" fill="none" xmlns="http://www.w3.org/2000/svg">
<path d="M2.55 7C2.55 6.69624 2.30376 6.45 2 6.45C1.69625 6.45 1.45 6.69624 1.45 7L2.55 7ZM1.45 17.3277C1.45 17.6315 1.69624 17.8777 2 17.8777C2.30376 17.8777 2.55 17.6315 2.55 17.3277H1.45ZM2.00007 9.04201C1.69632 9.04201 1.45007 9.28825 1.45007 9.59201C1.45007 9.89577 1.69632 10.142 2.00007 10.142V9.04201ZM6.60719 12.1706C6.60719 12.4743 6.85343 12.7206 7.15719 12.7206C7.46094 12.7206 7.70719 12.4743 7.70719 12.1706H6.60719ZM2.08213 12.2661V11.7161H1.53213V12.2661H2.08213ZM2.08213 15.2169H1.53213V15.7669H2.08213V15.2169ZM1.45 7L1.45 17.3277H2.55L2.55 7L1.45 7ZM2.00007 10.142H4.57865V9.04201H2.00007V10.142ZM4.57865 10.142C5.69897 10.142 6.60719 11.0502 6.60719 12.1706H7.70719C7.70719 10.4427 6.3065 9.04201 4.57865 9.04201V10.142ZM12.5942 11.7161H2.08213V12.8161H12.5942V11.7161ZM1.53213 12.2661V15.2169H2.63213V12.2661H1.53213ZM2.08213 15.7669H15.545V14.6669H2.08213V15.7669ZM14.995 15.2169V17.43H16.095V15.2169H14.995ZM12.5942 12.8161C13.9202 12.8161 14.995 13.891 14.995 15.2169H16.095C16.095 13.2835 14.5277 11.7161 12.5942 11.7161V12.8161Z" fill="#2569D7"/>
</svg>
