<svg width="17" height="16" viewBox="0 0 17 16" fill="none" xmlns="http://www.w3.org/2000/svg">
<path d="M10.8867 7.99995C10.8867 9.31995 9.82001 10.3866 8.50001 10.3866C7.18001 10.3866 6.11334 9.31995 6.11334 7.99995C6.11334 6.67995 7.18001 5.61328 8.50001 5.61328C9.82001 5.61328 10.8867 6.67995 10.8867 7.99995Z" stroke="#292D32" stroke-linecap="round" stroke-linejoin="round"/>
<path d="M8.49999 13.5133C10.8533 13.5133 13.0467 12.1266 14.5733 9.72665C15.1733 8.78665 15.1733 7.20665 14.5733 6.26665C13.0467 3.86665 10.8533 2.47998 8.49999 2.47998C6.14665 2.47998 3.95332 3.86665 2.42665 6.26665C1.82665 7.20665 1.82665 8.78665 2.42665 9.72665C3.95332 12.1266 6.14665 13.5133 8.49999 13.5133Z" stroke="#292D32" stroke-linecap="round" stroke-linejoin="round"/>
</svg>
