<svg width="16" height="18" viewBox="0 0 16 18" fill="none" xmlns="http://www.w3.org/2000/svg">
<path fill-rule="evenodd" clip-rule="evenodd" d="M15.3663 2.99397C15.7121 2.99397 16 3.28107 16 3.6464V3.98418C16 4.34062 15.7121 4.63662 15.3663 4.63662H0.634536C0.287876 4.63662 0 4.34062 0 3.98418V3.6464C0 3.28107 0.287876 2.99397 0.634536 2.99397H3.22628C3.75276 2.99397 4.21094 2.61975 4.32937 2.09175L4.4651 1.48554C4.67603 0.659767 5.37022 0.111328 6.16469 0.111328H9.83531C10.6211 0.111328 11.3231 0.659767 11.5263 1.44198L11.6715 2.09086C11.7891 2.61975 12.2472 2.99397 12.7746 2.99397H15.3663ZM14.0494 15.3417C14.32 12.8199 14.7938 6.82889 14.7938 6.76845C14.811 6.58534 14.7514 6.41201 14.633 6.27245C14.5059 6.14179 14.3451 6.06445 14.1679 6.06445H1.83849C1.66041 6.06445 1.49097 6.14179 1.3734 6.27245C1.2541 6.41201 1.19531 6.58534 1.20396 6.76845C1.20555 6.77955 1.22255 6.99059 1.25097 7.3434C1.37722 8.91073 1.72885 13.276 1.95607 15.3417C2.11686 16.8635 3.11535 17.8199 4.56164 17.8546C5.6777 17.8803 6.82747 17.8892 8.00318 17.8892C9.11059 17.8892 10.2353 17.8803 11.3859 17.8546C12.8824 17.8288 13.88 16.8892 14.0494 15.3417Z" fill="#06152B"/>
</svg>
