<svg width="35" height="36" viewBox="0 0 35 36" fill="none" xmlns="http://www.w3.org/2000/svg">
<g filter="url(#filter0_d_756_3489)">
<path d="M12.7544 23.0157L11.9717 24.2199C11.8202 24.4547 11.8859 24.7677 12.1207 24.9192C12.2065 24.9747 12.3 25 12.3959 25C12.5625 25 12.7241 24.9192 12.82 24.7703L13.585 23.5938C14.6806 24.2451 15.9581 24.6213 17.3214 24.6213C18.6873 24.6213 19.9647 24.2451 21.0579 23.5913L21.8203 24.7678C21.9162 24.9167 22.0804 24.9975 22.2444 24.9975C22.3379 24.9975 22.4338 24.9723 22.5196 24.9167C22.7544 24.7652 22.8201 24.4522 22.6686 24.2174L21.8885 23.0132C23.5648 21.6726 24.6428 19.61 24.6428 17.2999C24.6428 13.263 21.3583 9.97852 17.3214 9.97852C13.2845 9.97852 10 13.263 10 17.2999C10 19.6099 11.078 21.6725 12.7544 23.0157V23.0157ZM17.3214 10.9883C20.8029 10.9883 23.633 13.8184 23.633 17.2999C23.633 20.7814 20.8029 23.6115 17.3214 23.6115C13.84 23.6115 11.0098 20.7814 11.0098 17.2999C11.0098 13.8184 13.84 10.9883 17.3214 10.9883V10.9883Z" fill="white"/>
<path d="M19.0097 19.4482C19.1057 19.5315 19.2243 19.5719 19.343 19.5719C19.4843 19.5719 19.6232 19.5138 19.7242 19.4002C19.9085 19.1907 19.8858 18.8726 19.6762 18.6883L17.8282 17.07V13.0078C17.8282 12.7301 17.601 12.5029 17.3233 12.5029C17.0456 12.5029 16.8184 12.7301 16.8184 13.0078V17.2997C16.8184 17.4461 16.8815 17.585 16.99 17.6809L19.0097 19.4482Z" fill="white"/>
<path d="M11.0113 11.627C11.1426 11.627 11.2739 11.5765 11.3724 11.4756C11.9732 10.8621 12.6549 10.3496 13.3946 9.95069C13.6395 9.8194 13.7329 9.51395 13.6016 9.26651C13.4703 9.02164 13.1649 8.92821 12.9174 9.0595C12.0843 9.50636 11.3219 10.0795 10.6478 10.7687C10.4534 10.9682 10.456 11.2887 10.6554 11.4831C10.7564 11.5791 10.8851 11.627 11.0113 11.627V11.627Z" fill="white"/>
<path d="M21.2483 9.95065C21.9906 10.347 22.6697 10.862 23.2706 11.4755C23.369 11.5765 23.5003 11.627 23.6316 11.627C23.7578 11.627 23.8866 11.579 23.985 11.4831C24.1845 11.2887 24.187 10.9681 23.9926 10.7687C23.3211 10.0819 22.5561 9.50632 21.723 9.0595C21.4756 8.92821 21.1701 9.02164 21.0388 9.26651C20.91 9.51391 21.0009 9.81936 21.2483 9.95065V9.95065Z" fill="white"/>
</g>
<defs>
<filter id="filter0_d_756_3489" x="-5" y="-4" width="44" height="44" filterUnits="userSpaceOnUse" color-interpolation-filters="sRGB">
<feFlood flood-opacity="0" result="BackgroundImageFix"/>
<feColorMatrix in="SourceAlpha" type="matrix" values="0 0 0 0 0 0 0 0 0 0 0 0 0 0 0 0 0 0 127 0" result="hardAlpha"/>
<feOffset dy="1"/>
<feGaussianBlur stdDeviation="5"/>
<feColorMatrix type="matrix" values="0 0 0 0 0.0884448 0 0 0 0 0.158333 0 0 0 0 0.0277083 0 0 0 0.59 0"/>
<feBlend mode="normal" in2="BackgroundImageFix" result="effect1_dropShadow_756_3489"/>
<feBlend mode="normal" in="SourceGraphic" in2="effect1_dropShadow_756_3489" result="shape"/>
</filter>
</defs>
</svg>
