<svg width="37" height="35" viewBox="0 0 37 35" fill="none" xmlns="http://www.w3.org/2000/svg">
<g filter="url(#filter0_d_756_3497)">
<path d="M26.2785 12.7041C26.0045 11.6296 25.4205 10.7031 24.5897 10.0248C23.7803 9.36397 22.7887 9 21.7978 9C21.0381 9 20.3133 9.20458 19.6437 9.60796C19.1149 9.92662 18.6394 10.36 18.2238 10.9009C17.2789 9.66933 16.0314 9 14.6515 9C13.6609 9 12.6698 9.36397 11.8605 10.0248C11.0299 10.7031 10.446 11.6296 10.1721 12.704C9.87423 13.8723 9.8165 15.7395 11.2338 17.9997C12.5458 20.0918 14.8198 22.0303 17.993 23.7611C18.0649 23.8003 18.1443 23.82 18.2237 23.82C18.3032 23.82 18.3825 23.8004 18.4544 23.7611C21.6285 22.0301 23.9033 20.0917 25.2157 17.9997C26.6337 15.7395 26.5763 13.8724 26.2785 12.7041ZM18.2237 22.788C14.4624 20.6946 12.6011 18.6185 11.7165 16.8919H13.0636C13.2462 16.8919 13.413 16.7887 13.4946 16.6256L14.0959 15.4229L15.7294 18.69C15.811 18.8533 15.9779 18.9565 16.1604 18.9565C16.3429 18.9565 16.5098 18.8533 16.5914 18.69L18.2248 15.4229L18.8261 16.6256C18.9079 16.7888 19.0747 16.8919 19.2571 16.8919H22.9117C23.1777 16.8919 23.3935 16.6761 23.3935 16.4101C23.3935 16.144 23.1777 15.9282 22.9117 15.9282H19.555L18.656 14.13C18.5743 13.9667 18.4075 13.8636 18.2248 13.8636C18.0424 13.8636 17.8756 13.9667 17.794 14.13L16.1604 17.397L14.5269 14.13C14.4452 13.9667 14.2784 13.8636 14.0959 13.8636C13.9133 13.8636 13.7465 13.9667 13.6649 14.13L12.7658 15.9282H11.305C10.8275 14.532 10.9739 13.4598 11.106 12.9422C11.5531 11.1886 13.011 9.96377 14.6515 9.96377C15.8923 9.96377 17.0146 10.6887 17.8115 12.0048C17.8988 12.149 18.055 12.2371 18.2236 12.2371H18.2237C18.3921 12.2371 18.5485 12.1491 18.6359 12.0049C19.4335 10.6887 20.5564 9.96377 21.7978 9.96377C23.4389 9.96377 24.8974 11.1886 25.3446 12.9422C25.6547 14.1586 26.0453 18.4359 18.2237 22.788Z" fill="white"/>
</g>
<defs>
<filter id="filter0_d_756_3497" x="-4" y="-5" width="44" height="44" filterUnits="userSpaceOnUse" color-interpolation-filters="sRGB">
<feFlood flood-opacity="0" result="BackgroundImageFix"/>
<feColorMatrix in="SourceAlpha" type="matrix" values="0 0 0 0 0 0 0 0 0 0 0 0 0 0 0 0 0 0 127 0" result="hardAlpha"/>
<feOffset dy="1"/>
<feGaussianBlur stdDeviation="5"/>
<feColorMatrix type="matrix" values="0 0 0 0 0.0884448 0 0 0 0 0.158333 0 0 0 0 0.0277083 0 0 0 0.59 0"/>
<feBlend mode="normal" in2="BackgroundImageFix" result="effect1_dropShadow_756_3497"/>
<feBlend mode="normal" in="SourceGraphic" in2="effect1_dropShadow_756_3497" result="shape"/>
</filter>
</defs>
</svg>
