<svg width="33" height="38" viewBox="0 0 33 38" fill="none" xmlns="http://www.w3.org/2000/svg">
<g filter="url(#filter0_d_756_3502)">
<path d="M22.7748 23.4829L20.4345 19.4109H21.5645C21.6601 19.4097 21.7534 19.3816 21.8337 19.3298C21.9141 19.278 21.9782 19.2046 22.0187 19.118C22.0592 19.0314 22.0744 18.9352 22.0627 18.8403C22.051 18.7455 22.0127 18.6558 21.9523 18.5817L19.2042 15.2987H20.2406C20.3315 15.2983 20.4205 15.2732 20.4983 15.2261C20.576 15.1789 20.6395 15.1116 20.6819 15.0312C20.7277 14.9519 20.7518 14.862 20.7518 14.7704C20.7518 14.6789 20.7277 14.5889 20.6819 14.5097L17.2918 9.42794C17.1929 9.29514 17.0643 9.18729 16.9163 9.11299C16.7683 9.03869 16.6049 9 16.4393 9C16.2737 9 16.1104 9.03869 15.9624 9.11299C15.8144 9.18729 15.6857 9.29514 15.5868 9.42794L12.2034 14.5097C12.1536 14.5847 12.1246 14.6716 12.1193 14.7615C12.1141 14.8514 12.1329 14.941 12.1737 15.0213C12.2145 15.1016 12.2759 15.1696 12.3516 15.2183C12.4273 15.267 12.5147 15.2948 12.6046 15.2987H13.641L10.8795 18.5817C10.8173 18.6559 10.7778 18.7465 10.766 18.8426C10.7541 18.9387 10.7703 19.0362 10.8127 19.1233C10.8539 19.209 10.9184 19.2814 10.9988 19.3322C11.0792 19.383 11.1722 19.4103 11.2673 19.4109H12.4107L10.0705 23.4829C10.0244 23.5584 10 23.6452 10 23.7337C10 23.8221 10.0244 23.9089 10.0705 23.9844C10.1146 24.0623 10.1789 24.1269 10.2565 24.1716C10.3341 24.2163 10.4222 24.2394 10.5118 24.2385H15.0853V26.3314C15.0853 26.5087 15.1558 26.6788 15.2812 26.8042C15.4065 26.9296 15.5766 27 15.754 27H17.1581C17.3355 27 17.5055 26.9296 17.6309 26.8042C17.7563 26.6788 17.8268 26.5087 17.8268 26.3314V24.2385H22.3736C22.4557 24.2339 22.5355 24.2088 22.6055 24.1656C22.6756 24.1224 22.7337 24.0624 22.7748 23.9911C22.8194 23.9138 22.8428 23.8262 22.8428 23.737C22.8428 23.6478 22.8194 23.5602 22.7748 23.4829ZM17.1247 26.3314H15.754V24.2385H17.1581V26.3314H17.1247ZM17.459 23.5698H10.7725L13.1529 19.4109H14.3498C14.4385 19.4109 14.5235 19.3756 14.5862 19.3129C14.6489 19.2502 14.6841 19.1652 14.6841 19.0765C14.6841 18.9879 14.6489 18.9028 14.5862 18.8401C14.5235 18.7774 14.4385 18.7422 14.3498 18.7422H11.615L14.5103 15.2987H15.754C15.8421 15.297 15.9261 15.2612 15.9885 15.1989C16.0508 15.1365 16.0866 15.0525 16.0883 14.9643C16.0883 14.8757 16.0531 14.7906 15.9904 14.7279C15.9277 14.6652 15.8426 14.63 15.754 14.63H12.9055L16.1284 9.80239C16.1618 9.75546 16.2059 9.71721 16.2571 9.69081C16.3083 9.66441 16.365 9.65064 16.4226 9.65064C16.4802 9.65064 16.5369 9.66441 16.5881 9.69081C16.6393 9.71721 16.6834 9.75546 16.7168 9.80239L19.9397 14.63H18.4887C18.4252 14.6297 18.3629 14.6478 18.3095 14.6823C18.256 14.7167 18.2138 14.7659 18.1878 14.8239C18.1621 14.8815 18.1528 14.9452 18.1611 15.0077C18.1693 15.0703 18.1948 15.1294 18.2346 15.1783L21.2302 18.7689H19.8929C19.8343 18.7679 19.7765 18.7829 19.7258 18.8124C19.6751 18.8419 19.6335 18.8846 19.6054 18.9361C19.5773 18.9873 19.5625 19.0448 19.5625 19.1033C19.5625 19.1617 19.5773 19.2192 19.6054 19.2704L22.0861 23.5966L17.459 23.5698Z" fill="white"/>
</g>
<defs>
<filter id="filter0_d_756_3502" x="-5" y="-3" width="44" height="44" filterUnits="userSpaceOnUse" color-interpolation-filters="sRGB">
<feFlood flood-opacity="0" result="BackgroundImageFix"/>
<feColorMatrix in="SourceAlpha" type="matrix" values="0 0 0 0 0 0 0 0 0 0 0 0 0 0 0 0 0 0 127 0" result="hardAlpha"/>
<feOffset dy="1"/>
<feGaussianBlur stdDeviation="5"/>
<feColorMatrix type="matrix" values="0 0 0 0 0.0884448 0 0 0 0 0.158333 0 0 0 0 0.0277083 0 0 0 0.59 0"/>
<feBlend mode="normal" in2="BackgroundImageFix" result="effect1_dropShadow_756_3502"/>
<feBlend mode="normal" in="SourceGraphic" in2="effect1_dropShadow_756_3502" result="shape"/>
</filter>
</defs>
</svg>
