<svg width="38" height="38" viewBox="0 0 38 38" fill="none" xmlns="http://www.w3.org/2000/svg">
<g filter="url(#filter0_d_756_3508)">
<path d="M10.75 25.5H27.25" stroke="white" stroke-width="1.1" stroke-miterlimit="10" stroke-linecap="round" stroke-linejoin="round"/>
<path d="M24.835 25.5076V22.1626" stroke="white" stroke-width="1.1" stroke-miterlimit="10" stroke-linecap="round" stroke-linejoin="round"/>
<path d="M24.8502 17.1675C23.9352 17.1675 23.2002 17.9025 23.2002 18.8175V20.52C23.2002 21.435 23.9352 22.17 24.8502 22.17C25.7652 22.17 26.5002 21.435 26.5002 20.52V18.8175C26.5002 17.9025 25.7652 17.1675 24.8502 17.1675Z" stroke="white" stroke-width="1.1" stroke-miterlimit="10" stroke-linecap="round" stroke-linejoin="round"/>
<path d="M11.5752 25.4998V13.5223C11.5752 12.0148 12.3252 11.2573 13.8177 11.2573H18.4902C19.9827 11.2573 20.7252 12.0148 20.7252 13.5223V25.4998" stroke="white" stroke-width="1.1" stroke-miterlimit="10" stroke-linecap="round" stroke-linejoin="round"/>
<path d="M14.3496 15.1875H18.0621" stroke="white" stroke-width="1.1" stroke-miterlimit="10" stroke-linecap="round" stroke-linejoin="round"/>
<path d="M14.3496 18H18.0621" stroke="white" stroke-width="1.1" stroke-miterlimit="10" stroke-linecap="round" stroke-linejoin="round"/>
<path d="M16.1875 25.5V22.6875" stroke="white" stroke-width="1.1" stroke-miterlimit="10" stroke-linecap="round" stroke-linejoin="round"/>
</g>
<defs>
<filter id="filter0_d_756_3508" x="-3" y="-3" width="44" height="44" filterUnits="userSpaceOnUse" color-interpolation-filters="sRGB">
<feFlood flood-opacity="0" result="BackgroundImageFix"/>
<feColorMatrix in="SourceAlpha" type="matrix" values="0 0 0 0 0 0 0 0 0 0 0 0 0 0 0 0 0 0 127 0" result="hardAlpha"/>
<feOffset dy="1"/>
<feGaussianBlur stdDeviation="5"/>
<feColorMatrix type="matrix" values="0 0 0 0 0.0884448 0 0 0 0 0.158333 0 0 0 0 0.0277083 0 0 0 0.59 0"/>
<feBlend mode="normal" in2="BackgroundImageFix" result="effect1_dropShadow_756_3508"/>
<feBlend mode="normal" in="SourceGraphic" in2="effect1_dropShadow_756_3508" result="shape"/>
</filter>
</defs>
</svg>
