<svg width="16" height="12" viewBox="0 0 16 12" fill="none" xmlns="http://www.w3.org/2000/svg">
<path d="M1.55 1.03271C1.55 0.728958 1.30376 0.482715 1 0.482715C0.696246 0.482715 0.450002 0.728958 0.450002 1.03271L1.55 1.03271ZM0.45 11.3604C0.45 11.6642 0.696243 11.9104 1 11.9104C1.30376 11.9104 1.55 11.6642 1.55 11.3604H0.45ZM1.00007 3.07472C0.696316 3.07472 0.450073 3.32097 0.450073 3.62472C0.450073 3.92848 0.696316 4.17472 1.00007 4.17472V3.07472ZM5.60719 6.2033C5.60719 6.50705 5.85343 6.7533 6.15719 6.7533C6.46094 6.7533 6.70719 6.50705 6.70719 6.2033H5.60719ZM1.08213 6.29886V5.74886H0.532126V6.29886H1.08213ZM1.08213 9.24964H0.532126V9.79964H1.08213V9.24964ZM0.450002 1.03271L0.45 11.3604H1.55L1.55 1.03271L0.450002 1.03271ZM1.00007 4.17472H3.57865V3.07472H1.00007V4.17472ZM3.57865 4.17472C4.69897 4.17472 5.60719 5.08293 5.60719 6.2033H6.70719C6.70719 4.47542 5.3065 3.07472 3.57865 3.07472V4.17472ZM11.5942 5.74886H1.08213V6.84886H11.5942V5.74886ZM0.532126 6.29886V9.24964H1.63213V6.29886H0.532126ZM1.08213 9.79964H14.545V8.69964H1.08213V9.79964ZM13.995 9.24964V11.4627H15.095V9.24964H13.995ZM11.5942 6.84886C12.9202 6.84886 13.995 7.92373 13.995 9.24964H15.095C15.095 7.31621 13.5277 5.74886 11.5942 5.74886V6.84886Z" fill="#2569D7"/>
</svg>
