<svg width="24" height="17" viewBox="0 0 24 17" fill="none" xmlns="http://www.w3.org/2000/svg">
<path d="M23.0769 14.4L0.923077 14.4C0.418462 14.4 0 14.808 0 15.3C0 15.792 0.418462 16.2 0.923077 16.2L23.0769 16.2C23.5815 16.2 24 15.792 24 15.3C24 14.808 23.5815 14.4 23.0769 14.4Z" fill="#51555B"/>
<path d="M23.0769 7.5999L0.923077 7.5999C0.418462 7.5999 0 8.0079 0 8.4999C0 8.9919 0.418462 9.3999 0.923077 9.3999L23.0769 9.3999C23.5815 9.3999 24 8.9919 24 8.4999C24 8.0079 23.5815 7.5999 23.0769 7.5999Z" fill="#51555B"/>
<path d="M23.0769 0.799854L0.923077 0.799854C0.418462 0.799854 0 1.20785 0 1.69985C0 2.19185 0.418462 2.59985 0.923077 2.59985L23.0769 2.59985C23.5815 2.59985 24 2.19185 24 1.69985C24 1.20785 23.5815 0.799854 23.0769 0.799854Z" fill="#51555B"/>
</svg>
