<svg width="22" height="23" viewBox="0 0 22 23" fill="none" xmlns="http://www.w3.org/2000/svg">
<path d="M14.0557 3.86133V6.15299" stroke="#5EB215" stroke-width="1.5" stroke-miterlimit="10" stroke-linecap="round" stroke-linejoin="round"/>
<path d="M7.94434 3.86133L7.94434 6.15299" stroke="#5EB215" stroke-width="1.5" stroke-miterlimit="10" stroke-linecap="round" stroke-linejoin="round"/>
<path d="M7.94444 5.00732C5.40069 5.14482 4.125 6.11496 4.125 9.70524V14.4261C4.125 17.5733 4.88889 19.1469 8.70833 19.1469H13.2917C17.1111 19.1469 17.875 17.5733 17.875 14.4261L17.875 9.70524C17.875 6.11496 16.5993 5.15246 14.0556 5.00732L7.94444 5.00732Z" stroke="#5EB215" stroke-width="1.5" stroke-miterlimit="10" stroke-linecap="round" stroke-linejoin="round"/>
<path d="M4.31652 15.7778L17.6846 15.7778" stroke="#5EB215" stroke-width="1.5" stroke-miterlimit="10" stroke-linecap="round" stroke-linejoin="round"/>
<path d="M11.0004 8.63574C11.94 8.63574 12.7345 9.14755 12.7345 10.1406C12.7345 10.6142 12.5129 10.9732 12.1768 11.2024C12.6428 11.4774 12.9102 11.9205 12.9102 12.4399C12.9102 13.3871 12.1845 13.9753 11.0004 13.9753C9.82404 13.9753 9.09071 13.3871 9.09071 12.4399C9.09071 11.9205 9.35807 11.4698 9.83168 11.2024C9.48793 10.9656 9.27404 10.6142 9.27404 10.1406C9.27404 9.14755 10.0609 8.63574 11.0004 8.63574ZM11.0004 10.8052C11.3977 10.8052 11.6879 10.5684 11.6879 10.1941C11.6879 9.81213 11.3977 9.5906 11.0004 9.5906C10.6032 9.5906 10.3129 9.81213 10.3129 10.1941C10.3129 10.5684 10.6032 10.8052 11.0004 10.8052ZM11.0004 13.0281C11.5046 13.0281 11.8713 12.776 11.8713 12.3177C11.8713 11.8594 11.5046 11.6149 11.0004 11.6149C10.4963 11.6149 10.1296 11.867 10.1296 12.3177C10.1296 12.776 10.4963 13.0281 11.0004 13.0281Z" fill="#5EB215"/>
</svg>
