<svg width="22" height="22" viewBox="0 0 22 22" fill="none" xmlns="http://www.w3.org/2000/svg">
<path d="M18.7923 8.31317C17.6352 5.0661 14.5062 2.72639 10.8847 2.75015C6.29402 2.78026 2.58699 6.53309 2.63125 11.1412C2.67516 15.715 6.37035 19.3713 10.9444 19.3691C12.6192 19.3684 14.1781 18.8721 15.4825 18.019" stroke="#2569D7" stroke-width="1.5" stroke-miterlimit="10" stroke-linecap="round" stroke-linejoin="round"/>
<path d="M14.25 7.93101L14.25 11.7994C14.25 13.1801 15.3693 14.2993 16.7499 14.2993C18.1306 14.2993 19.2498 13.1801 19.2498 11.7994" stroke="#2569D7" stroke-width="1.5" stroke-miterlimit="10" stroke-linecap="round" stroke-linejoin="round"/>
<path d="M7.66602 11.0594C7.66602 9.25098 9.13209 7.78491 10.9406 7.78491C12.749 7.78491 14.2151 9.25098 14.2151 11.0594C14.2151 12.8679 12.749 14.334 10.9406 14.334C9.13209 14.334 7.66602 12.8679 7.66602 11.0594Z" stroke="#2569D7" stroke-width="1.5" stroke-miterlimit="10" stroke-linecap="round" stroke-linejoin="round"/>
</svg>
