<svg width="18" height="14" viewBox="0 0 18 14" fill="none" xmlns="http://www.w3.org/2000/svg">
<path d="M1.06959 12.4809H16.5731C16.5743 12.4827 16.5756 12.4851 16.5768 12.4882C16.5792 12.4943 16.5808 12.5019 16.5808 12.5104C16.5808 12.5189 16.5792 12.5265 16.5768 12.5326C16.5756 12.5357 16.5743 12.5381 16.5731 12.5399H1.06959C1.06845 12.5381 1.06714 12.5357 1.06592 12.5326C1.06354 12.5265 1.06191 12.5189 1.06191 12.5104C1.06191 12.5019 1.06354 12.4943 1.06592 12.4882C1.06714 12.4851 1.06845 12.4827 1.06959 12.4809Z" stroke="#2569D7" stroke-width="1.2"/>
<path d="M7.30068 5.93842C7.29967 5.93884 7.29852 5.93925 7.29724 5.9396L7.29372 5.92189L7.30068 5.93842Z" stroke="#2569D7" stroke-width="1.2"/>
<path d="M15.7338 9.83314H15.7562H16.2862H17.0353C17.0365 9.83494 17.0378 9.83736 17.039 9.84049C17.0414 9.84657 17.043 9.85417 17.043 9.86268C17.043 9.8712 17.0414 9.87879 17.039 9.88487C17.0378 9.88801 17.0365 9.89043 17.0353 9.89222H0.607681C0.606531 9.89043 0.605231 9.88801 0.604003 9.88487C0.601623 9.87879 0.6 9.8712 0.6 9.86268C0.6 9.85417 0.601623 9.84657 0.604003 9.84049C0.605231 9.83736 0.606531 9.83494 0.60768 9.83314H1.35669H1.88661H1.9091H2.55045H15.0923H15.7338ZM15.0824 7.00617C13.9821 4.69896 11.5832 3.10505 8.8214 3.10505C6.06651 3.10505 3.67263 4.69103 2.56861 6.98895C3.60178 4.79597 5.78894 3.2303 8.36295 3.06275L8.82145 3.03291L9.27994 3.06275C11.8607 3.23074 14.0526 4.80406 15.0824 7.00617ZM9.27899 1.2369C9.28078 1.2421 9.28251 1.24734 9.28417 1.25263C9.28897 1.26793 9.29321 1.28358 9.29686 1.29955C9.30728 1.34527 9.31236 1.3918 9.31227 1.43808C9.31221 1.46934 9.30979 1.50049 9.30506 1.53119C9.29893 1.57097 9.28893 1.60999 9.27517 1.64756C9.25342 1.69361 9.22414 1.73708 9.18734 1.77602C9.1847 1.77881 9.18203 1.78157 9.17933 1.78429C9.11086 1.85345 9.0213 1.90313 8.92119 1.92325C8.88891 1.92974 8.85552 1.93316 8.8214 1.93316C8.75295 1.93316 8.68673 1.91933 8.62614 1.89395C8.59216 1.87972 8.55996 1.86186 8.53012 1.84077C8.47812 1.804 8.43529 1.75893 8.40226 1.70899C8.38933 1.68944 8.3779 1.66915 8.368 1.64832C8.36403 1.63752 8.36037 1.62661 8.35703 1.61559C8.33967 1.55843 8.33074 1.49847 8.33062 1.43808C8.33056 1.40846 8.33262 1.37873 8.33685 1.34917C8.33923 1.33256 8.34229 1.316 8.34604 1.29955C8.35101 1.27776 8.35709 1.25657 8.3642 1.23603C8.3863 1.18719 8.41675 1.1411 8.45546 1.10014C8.45809 1.09735 8.46076 1.0946 8.46346 1.09187C8.53014 1.02451 8.61749 0.974828 8.71717 0.953849C8.75172 0.946578 8.78665 0.943 8.8214 0.943001C8.89126 0.943003 8.96039 0.957472 9.02429 0.985476C9.05256 0.997866 9.07912 1.01259 9.10383 1.02927C9.16234 1.06879 9.21046 1.11932 9.24625 1.176C9.2587 1.19571 9.26961 1.21606 9.27899 1.2369ZM8.8214 1.33316C8.83725 1.33316 8.85281 1.33718 8.86681 1.34481C8.87013 1.34661 8.87336 1.34863 8.87649 1.35084C8.89019 1.36053 8.90136 1.37364 8.90903 1.38896C8.91048 1.39187 8.91181 1.39487 8.91301 1.39793C8.91802 1.41072 8.92056 1.42437 8.92056 1.43808C8.92056 1.44492 8.91993 1.45178 8.91866 1.45855C8.91556 1.47503 8.90878 1.49041 8.89895 1.50346C8.89664 1.50653 8.89416 1.50948 8.89152 1.51227C8.87765 1.52694 8.85998 1.53694 8.84074 1.54099C8.83434 1.54233 8.82786 1.543 8.8214 1.543C8.80844 1.543 8.79554 1.54032 8.78345 1.53502C8.77413 1.53094 8.76552 1.5254 8.75786 1.51864C8.75062 1.51225 8.74424 1.50476 8.73894 1.49637C8.7339 1.48838 8.72994 1.47973 8.72714 1.47069C8.72391 1.46022 8.72223 1.44922 8.72223 1.43808C8.72223 1.43261 8.72264 1.42718 8.72342 1.42185C8.72608 1.40389 8.73311 1.38695 8.74384 1.3727C8.74615 1.36963 8.74863 1.36669 8.75128 1.36389C8.76416 1.35025 8.78024 1.34076 8.79764 1.33621C8.80535 1.3342 8.81332 1.33316 8.8214 1.33316Z" stroke="#2569D7" stroke-width="1.2"/>
</svg>
