<svg width="1178" height="372" viewBox="0 0 1178 372" fill="none" xmlns="http://www.w3.org/2000/svg">
<path d="M225.311 288.765C225.311 278.412 222.777 269 217.709 260.529C212.734 252.059 205.742 245.753 196.731 241.612L206.445 228.906L186.453 218.741L173.078 236.529H172.656C156.699 236.529 143.934 241.565 134.361 251.635C124.787 261.8 120 274.176 120 288.765C120 303.353 124.787 315.682 134.361 325.753C143.934 335.918 156.699 341 172.656 341C188.612 341 201.377 335.918 210.951 325.753C220.525 315.682 225.311 303.353 225.311 288.765ZM172.656 257C181.666 257 188.706 260.012 193.774 266.035C198.937 272.153 201.518 279.729 201.518 288.765C201.518 297.8 198.937 305.329 193.774 311.353C188.706 317.471 181.666 320.529 172.656 320.529C163.551 320.529 156.418 317.471 151.256 311.353C146.187 305.329 143.7 297.8 143.794 288.765C143.7 279.729 146.187 272.153 151.256 266.035C156.418 260.012 163.551 257 172.656 257Z" fill="url(#paint0_linear_663_35462)" fill-opacity="0.12"/>
<path d="M265.255 237.518C255.4 237.518 247.609 240.859 241.884 247.541C236.159 254.224 233.296 262.835 233.296 273.376C233.296 283.729 236.252 292.294 242.166 299.071C248.079 305.847 255.869 309.235 265.537 309.235C270.324 309.235 274.594 308.2 278.349 306.129C282.103 304.059 284.919 301.235 286.796 297.659V307.4H308.196V239.353H286.796V248.953C284.919 245.565 282.009 242.788 278.067 240.624C274.219 238.553 269.948 237.518 265.255 237.518ZM271.45 255.447C276.612 255.447 280.601 257.141 283.417 260.529C286.233 263.918 287.641 268.2 287.641 273.376C287.641 278.459 286.233 282.694 283.417 286.082C280.601 289.471 276.612 291.165 271.45 291.165C266.569 291.165 262.627 289.518 259.624 286.224C256.714 282.929 255.259 278.647 255.259 273.376C255.259 268.106 256.714 263.776 259.624 260.388C262.627 257.094 266.569 255.447 271.45 255.447Z" fill="url(#paint1_linear_663_35462)" fill-opacity="0.12"/>
<path d="M317.914 239.353L351.282 289.471H321.152V307.4H383.945L351.141 257.141H381.411V239.353H317.914Z" fill="url(#paint2_linear_663_35462)" fill-opacity="0.12"/>
<path d="M418.42 237.518C408.565 237.518 400.774 240.859 395.049 247.541C389.323 254.224 386.461 262.835 386.461 273.376C386.461 283.729 389.417 292.294 395.33 299.071C401.244 305.847 409.034 309.235 418.702 309.235C423.489 309.235 427.759 308.2 431.514 306.129C435.268 304.059 438.084 301.235 439.961 297.659V307.4H461.361V239.353H439.961V248.953C438.084 245.565 435.174 242.788 431.232 240.624C427.384 238.553 423.113 237.518 418.42 237.518ZM424.615 255.447C429.777 255.447 433.766 257.141 436.582 260.529C439.398 263.918 440.806 268.2 440.806 273.376C440.806 278.459 439.398 282.694 436.582 286.082C433.766 289.471 429.777 291.165 424.615 291.165C419.734 291.165 415.792 289.518 412.788 286.224C409.879 282.929 408.424 278.647 408.424 273.376C408.424 268.106 409.879 263.776 412.788 260.388C415.792 257.094 419.734 255.447 424.615 255.447Z" fill="url(#paint3_linear_663_35462)" fill-opacity="0.12"/>
<path d="M527.818 307.4H549.218V211.118H527.677V245.282H527.818V248.953C525.94 245.565 523.031 242.788 519.089 240.624C515.24 238.553 510.97 237.518 506.277 237.518C496.421 237.518 488.631 240.859 482.905 247.541C477.18 254.224 474.317 262.835 474.317 273.376C474.317 283.729 477.274 292.294 483.187 299.071C489.1 305.847 496.891 309.235 506.558 309.235C511.345 309.235 515.616 308.2 519.37 306.129C523.125 304.059 525.94 301.235 527.818 297.659V307.4ZM512.472 255.447C517.634 255.447 521.623 257.141 524.439 260.529C527.255 263.918 528.662 268.2 528.662 273.376C528.662 278.459 527.255 282.694 524.439 286.082C521.623 289.471 517.634 291.165 512.472 291.165C507.591 291.165 503.649 289.518 500.645 286.224C497.735 282.929 496.281 278.647 496.281 273.376C496.281 268.106 497.735 263.776 500.645 260.388C503.649 257.094 507.591 255.447 512.472 255.447Z" fill="url(#paint4_linear_663_35462)" fill-opacity="0.12"/>
<path d="M594.274 237.235C584.513 237.235 576.722 239.353 570.903 243.588C565.084 247.824 562.174 253.235 562.174 259.824H583.574C583.574 257.471 584.607 255.541 586.671 254.035C588.736 252.529 591.411 251.776 594.697 251.776C597.043 251.776 598.92 252.341 600.328 253.471C601.83 254.6 602.581 256.153 602.581 258.129C602.581 261.235 600.938 263.165 597.653 263.918L581.04 268.153C575.502 269.565 571.278 271.965 568.369 275.353C565.459 278.741 564.004 282.882 564.004 287.776C564.004 294.176 566.632 299.353 571.888 303.306C577.145 307.353 584.184 309.376 593.007 309.376C602.769 309.376 610.23 307.494 615.393 303.729C620.649 299.965 623.277 294.788 623.277 288.2H602.018C602.018 290.553 601.173 292.388 599.483 293.706C597.888 295.024 595.635 295.682 592.725 295.682C590.379 295.682 588.502 295.165 587.094 294.129C585.686 293.094 584.982 291.729 584.982 290.035C584.982 287.024 586.906 285 590.754 283.965L606.805 279.588C612.155 278.176 616.331 275.824 619.335 272.529C622.432 269.329 623.981 265.376 623.981 260.671C623.981 253.612 621.306 247.918 615.956 243.588C610.7 239.353 603.472 237.235 594.274 237.235Z" fill="url(#paint5_linear_663_35462)" fill-opacity="0.12"/>
<path d="M672.017 256.153C675.021 256.153 677.508 256.294 679.479 256.576V239.353C675.349 238.6 670.562 238.224 665.118 238.224C662.678 238.224 660.519 238.365 658.642 238.647C656.765 238.929 654.653 239.541 652.306 240.482C649.96 241.518 648.036 242.882 646.534 244.576C645.032 246.271 643.718 248.718 642.592 251.918C641.559 255.118 641.043 258.882 641.043 263.212V290.318H630.343V307.4H641.043V327.588H662.584V307.4H677.93V290.318H662.584V267.729C662.584 263.118 663.382 260.012 664.977 258.412C666.573 256.906 668.92 256.153 672.017 256.153Z" fill="url(#paint6_linear_663_35462)" fill-opacity="0.12"/>
<path d="M718.425 237.518C708.57 237.518 700.779 240.859 695.054 247.541C689.328 254.224 686.466 262.835 686.466 273.376C686.466 283.729 689.422 292.294 695.335 299.071C701.249 305.847 709.039 309.235 718.707 309.235C723.494 309.235 727.764 308.2 731.519 306.129C735.273 304.059 738.089 301.235 739.966 297.659V307.4H761.366V239.353H739.966V248.953C738.089 245.565 735.179 242.788 731.237 240.624C727.389 238.553 723.118 237.518 718.425 237.518ZM724.62 255.447C729.782 255.447 733.771 257.141 736.587 260.529C739.403 263.918 740.811 268.2 740.811 273.376C740.811 278.459 739.403 282.694 736.587 286.082C733.771 289.471 729.782 291.165 724.62 291.165C719.739 291.165 715.797 289.518 712.793 286.224C709.884 282.929 708.429 278.647 708.429 273.376C708.429 268.106 709.884 263.776 712.793 260.388C715.797 257.094 719.739 255.447 724.62 255.447Z" fill="url(#paint7_linear_663_35462)" fill-opacity="0.12"/>
<path d="M779.25 239.353V307.4H800.791V297.518C804.827 305.329 812.148 309.235 822.754 309.235C839.274 309.235 847.533 299.965 847.533 281.424V239.353H825.852V274.365C825.852 280.2 824.913 284.435 823.036 287.071C821.253 289.706 818.202 291.024 813.885 291.024C805.155 291.024 800.791 285.659 800.791 274.929V239.353H779.25Z" fill="url(#paint8_linear_663_35462)" fill-opacity="0.12"/>
<path d="M910.667 307.4H932.208V241.471C932.208 230.929 928.97 222.741 922.493 216.906C916.393 211.635 908.086 209 897.574 209C886.592 209 878.238 211.353 872.513 216.059C866.975 220.765 864.159 226.741 864.065 233.988H885.747C886.216 227.871 890.159 224.812 897.574 224.812C906.303 224.812 910.667 229.894 910.667 240.059V250.647C906.725 243.118 899.545 239.353 889.126 239.353C880.773 239.353 874.484 241.894 870.26 246.976C866.13 252.059 864.065 259.024 864.065 267.871V307.4H885.606V271.118C885.606 261.329 889.595 256.435 897.574 256.435C901.797 256.435 905.035 257.941 907.288 260.953C909.541 264.059 910.667 268.294 910.667 273.659V307.4Z" fill="url(#paint9_linear_663_35462)" fill-opacity="0.12"/>
<path d="M950.014 239.353V307.4H971.555V297.518C973.056 301 975.497 303.824 978.876 305.988C982.349 308.153 986.385 309.235 990.984 309.235C1001.68 309.235 1008.77 305.047 1012.24 296.671C1014.12 300.435 1016.98 303.447 1020.83 305.706C1024.68 308.059 1029.04 309.235 1033.92 309.235C1049.97 309.235 1058 300.012 1058 281.565V239.353H1036.32V277.612C1036.32 286.553 1032.94 291.024 1026.18 291.024C1018.58 291.024 1014.78 285.471 1014.78 274.365V239.353H993.096V277.753C993.096 286.6 989.763 291.024 983.099 291.024C979.345 291.024 976.482 289.753 974.511 287.212C972.54 284.765 971.555 280.482 971.555 274.365V239.353H950.014Z" fill="url(#paint10_linear_663_35462)" fill-opacity="0.12"/>
<g filter="url(#filter0_bdii_663_35462)">
<path d="M225.311 168.235C225.311 178.588 222.777 188 217.709 196.471C212.734 204.941 205.742 211.247 196.731 215.388L206.445 228.094L186.453 238.259L173.078 220.471H172.656C156.699 220.471 143.934 215.435 134.361 205.365C124.787 195.2 120 182.824 120 168.235C120 153.647 124.787 141.318 134.361 131.247C143.934 121.082 156.699 116 172.656 116C188.612 116 201.377 121.082 210.951 131.247C220.525 141.318 225.311 153.647 225.311 168.235ZM172.656 200C181.666 200 188.706 196.988 193.774 190.965C198.937 184.847 201.518 177.271 201.518 168.235C201.518 159.2 198.937 151.671 193.774 145.647C188.706 139.529 181.666 136.471 172.656 136.471C163.551 136.471 156.418 139.529 151.256 145.647C146.187 151.671 143.7 159.2 143.794 168.235C143.7 177.271 146.187 184.847 151.256 190.965C156.418 196.988 163.551 200 172.656 200Z" fill="white"/>
<path d="M265.255 219.482C255.4 219.482 247.609 216.141 241.884 209.459C236.159 202.776 233.296 194.165 233.296 183.624C233.296 173.271 236.252 164.706 242.166 157.929C248.079 151.153 255.869 147.765 265.537 147.765C270.324 147.765 274.594 148.8 278.349 150.871C282.103 152.941 284.919 155.765 286.796 159.341V149.6H308.196V217.647H286.796V208.047C284.919 211.435 282.009 214.212 278.067 216.376C274.219 218.447 269.948 219.482 265.255 219.482ZM271.45 201.553C276.612 201.553 280.601 199.859 283.417 196.471C286.233 193.082 287.641 188.8 287.641 183.624C287.641 178.541 286.233 174.306 283.417 170.918C280.601 167.529 276.612 165.835 271.45 165.835C266.569 165.835 262.627 167.482 259.624 170.776C256.714 174.071 255.259 178.353 255.259 183.624C255.259 188.894 256.714 193.224 259.624 196.612C262.627 199.906 266.569 201.553 271.45 201.553Z" fill="white"/>
<path d="M317.914 217.647L351.282 167.529H321.152V149.6H383.945L351.141 199.859H381.411V217.647H317.914Z" fill="white"/>
<path d="M418.42 219.482C408.565 219.482 400.774 216.141 395.049 209.459C389.323 202.776 386.461 194.165 386.461 183.624C386.461 173.271 389.417 164.706 395.33 157.929C401.244 151.153 409.034 147.765 418.702 147.765C423.489 147.765 427.759 148.8 431.514 150.871C435.268 152.941 438.084 155.765 439.961 159.341V149.6H461.361V217.647H439.961V208.047C438.084 211.435 435.174 214.212 431.232 216.376C427.384 218.447 423.113 219.482 418.42 219.482ZM424.615 201.553C429.777 201.553 433.766 199.859 436.582 196.471C439.398 193.082 440.806 188.8 440.806 183.624C440.806 178.541 439.398 174.306 436.582 170.918C433.766 167.529 429.777 165.835 424.615 165.835C419.734 165.835 415.792 167.482 412.788 170.776C409.879 174.071 408.424 178.353 408.424 183.624C408.424 188.894 409.879 193.224 412.788 196.612C415.792 199.906 419.734 201.553 424.615 201.553Z" fill="white"/>
<path d="M527.818 149.6H549.218V245.882H527.677V211.718H527.818V208.047C525.94 211.435 523.031 214.212 519.089 216.376C515.24 218.447 510.97 219.482 506.277 219.482C496.421 219.482 488.631 216.141 482.905 209.459C477.18 202.776 474.317 194.165 474.317 183.624C474.317 173.271 477.274 164.706 483.187 157.929C489.1 151.153 496.891 147.765 506.558 147.765C511.345 147.765 515.616 148.8 519.37 150.871C523.125 152.941 525.94 155.765 527.818 159.341V149.6ZM512.472 201.553C517.634 201.553 521.623 199.859 524.439 196.471C527.255 193.082 528.662 188.8 528.662 183.624C528.662 178.541 527.255 174.306 524.439 170.918C521.623 167.529 517.634 165.835 512.472 165.835C507.591 165.835 503.649 167.482 500.645 170.776C497.735 174.071 496.281 178.353 496.281 183.624C496.281 188.894 497.735 193.224 500.645 196.612C503.649 199.906 507.591 201.553 512.472 201.553Z" fill="white"/>
<path d="M594.274 219.765C584.513 219.765 576.722 217.647 570.903 213.412C565.084 209.176 562.174 203.765 562.174 197.176H583.574C583.574 199.529 584.607 201.459 586.671 202.965C588.736 204.471 591.411 205.224 594.697 205.224C597.043 205.224 598.92 204.659 600.328 203.529C601.83 202.4 602.581 200.847 602.581 198.871C602.581 195.765 600.938 193.835 597.653 193.082L581.04 188.847C575.502 187.435 571.278 185.035 568.369 181.647C565.459 178.259 564.004 174.118 564.004 169.224C564.004 162.824 566.632 157.647 571.888 153.694C577.145 149.647 584.184 147.624 593.007 147.624C602.769 147.624 610.23 149.506 615.393 153.271C620.649 157.035 623.277 162.212 623.277 168.8H602.018C602.018 166.447 601.173 164.612 599.483 163.294C597.888 161.976 595.635 161.318 592.725 161.318C590.379 161.318 588.502 161.835 587.094 162.871C585.686 163.906 584.982 165.271 584.982 166.965C584.982 169.976 586.906 172 590.754 173.035L606.805 177.412C612.155 178.824 616.331 181.176 619.335 184.471C622.432 187.671 623.981 191.624 623.981 196.329C623.981 203.388 621.306 209.082 615.956 213.412C610.7 217.647 603.472 219.765 594.274 219.765Z" fill="white"/>
<path d="M672.017 200.847C675.021 200.847 677.508 200.706 679.479 200.424V217.647C675.349 218.4 670.562 218.776 665.118 218.776C662.678 218.776 660.519 218.635 658.642 218.353C656.765 218.071 654.653 217.459 652.306 216.518C649.96 215.482 648.036 214.118 646.534 212.424C645.032 210.729 643.718 208.282 642.592 205.082C641.559 201.882 641.043 198.118 641.043 193.788V166.682H630.343V149.6H641.043V129.412H662.584V149.6H677.93V166.682H662.584V189.271C662.584 193.882 663.382 196.988 664.977 198.588C666.573 200.094 668.92 200.847 672.017 200.847Z" fill="white"/>
<path d="M718.425 219.482C708.57 219.482 700.779 216.141 695.054 209.459C689.328 202.776 686.466 194.165 686.466 183.624C686.466 173.271 689.422 164.706 695.335 157.929C701.249 151.153 709.039 147.765 718.707 147.765C723.494 147.765 727.764 148.8 731.519 150.871C735.273 152.941 738.089 155.765 739.966 159.341V149.6H761.366V217.647H739.966V208.047C738.089 211.435 735.179 214.212 731.237 216.376C727.389 218.447 723.118 219.482 718.425 219.482ZM724.62 201.553C729.782 201.553 733.771 199.859 736.587 196.471C739.403 193.082 740.811 188.8 740.811 183.624C740.811 178.541 739.403 174.306 736.587 170.918C733.771 167.529 729.782 165.835 724.62 165.835C719.739 165.835 715.797 167.482 712.793 170.776C709.884 174.071 708.429 178.353 708.429 183.624C708.429 188.894 709.884 193.224 712.793 196.612C715.797 199.906 719.739 201.553 724.62 201.553Z" fill="white"/>
<path d="M779.25 217.647V149.6H800.791V159.482C804.827 151.671 812.148 147.765 822.754 147.765C839.274 147.765 847.533 157.035 847.533 175.576V217.647H825.852V182.635C825.852 176.8 824.913 172.565 823.036 169.929C821.253 167.294 818.202 165.976 813.885 165.976C805.155 165.976 800.791 171.341 800.791 182.071V217.647H779.25Z" fill="white"/>
<path d="M910.667 149.6H932.208V215.529C932.208 226.071 928.97 234.259 922.493 240.094C916.393 245.365 908.086 248 897.574 248C886.592 248 878.238 245.647 872.513 240.941C866.975 236.235 864.159 230.259 864.065 223.012H885.747C886.216 229.129 890.159 232.188 897.574 232.188C906.303 232.188 910.667 227.106 910.667 216.941V206.353C906.725 213.882 899.545 217.647 889.126 217.647C880.773 217.647 874.484 215.106 870.26 210.024C866.13 204.941 864.065 197.976 864.065 189.129V149.6H885.606V185.882C885.606 195.671 889.595 200.565 897.574 200.565C901.797 200.565 905.035 199.059 907.288 196.047C909.541 192.941 910.667 188.706 910.667 183.341V149.6Z" fill="white"/>
<path d="M950.014 217.647V149.6H971.555V159.482C973.056 156 975.497 153.176 978.876 151.012C982.349 148.847 986.385 147.765 990.984 147.765C1001.68 147.765 1008.77 151.953 1012.24 160.329C1014.12 156.565 1016.98 153.553 1020.83 151.294C1024.68 148.941 1029.04 147.765 1033.92 147.765C1049.97 147.765 1058 156.988 1058 175.435V217.647H1036.32V179.388C1036.32 170.447 1032.94 165.976 1026.18 165.976C1018.58 165.976 1014.78 171.529 1014.78 182.635V217.647H993.096V179.247C993.096 170.4 989.763 165.976 983.099 165.976C979.345 165.976 976.482 167.247 974.511 169.788C972.54 172.235 971.555 176.518 971.555 182.635V217.647H950.014Z" fill="white"/>
</g>
<path d="M130.5 97.1999C129.02 96.0799 128.08 95.2199 127.68 94.6199C127.28 93.9799 127.04 93.2199 126.96 92.3399C126.88 91.6199 126.88 90.6399 126.96 89.3999C127.08 88.1599 127.22 86.9399 127.38 85.7399C127.54 84.5399 127.68 83.6399 127.8 83.0399C128 82.8399 128.08 82.5799 128.04 82.2599C128.04 81.8999 128.04 81.7199 128.04 81.7199C128 81.5199 128.14 80.9999 128.46 80.1599C128.78 79.2799 129.08 78.1599 129.36 76.7999C130.16 74.3999 130.92 72.3999 131.64 70.7999C132.4 69.1599 133.14 67.7599 133.86 66.5999C134.58 65.4399 135.3 64.3799 136.02 63.4199C137.66 61.7399 138.98 60.4799 139.98 59.6399C140.98 58.7599 142.1 58.0399 143.34 57.4799C144.14 56.9999 144.88 56.6199 145.56 56.3399C146.24 56.0599 146.8 56.0199 147.24 56.2199C149.48 56.6999 151.16 57.6199 152.28 58.9799C153.4 60.2999 154.22 62.3599 154.74 65.1599C155.02 66.9199 155.18 68.5199 155.22 69.9599C155.3 71.3599 155.2 72.7599 154.92 74.1599C154.64 75.5199 154.12 77.0199 153.36 78.6599C152.64 80.2999 151.62 82.2199 150.3 84.4199C148.9 87.1799 147.32 89.5799 145.56 91.6199C143.84 93.6599 142.06 95.2599 140.22 96.4199C138.42 97.6199 136.66 98.2999 134.94 98.4599C133.26 98.6199 131.78 98.1999 130.5 97.1999ZM134.34 95.4599C135.26 95.3399 136.14 95.0599 136.98 94.6199C137.82 94.1799 138.7 93.5399 139.62 92.6999C140.54 91.8199 141.58 90.7199 142.74 89.3999C143.78 88.1999 144.62 87.1999 145.26 86.3999C145.94 85.5599 146.5 84.7199 146.94 83.8799C147.42 83.0399 147.86 82.0199 148.26 80.8199C148.7 79.6199 149.2 78.0599 149.76 76.1399C150.08 74.9399 150.32 73.9399 150.48 73.1399C150.64 72.3399 150.74 71.5999 150.78 70.9199C150.82 70.1999 150.82 69.3799 150.78 68.4599C150.78 67.5399 150.78 66.3599 150.78 64.9199C150.74 64.2399 150.6 63.5399 150.36 62.8199C150.12 62.0599 149.84 61.4999 149.52 61.1399C149.12 60.6999 148.56 60.3999 147.84 60.2399C147.12 60.0399 146.32 60.1399 145.44 60.5399C144.96 60.7399 144.34 61.1999 143.58 61.9199C142.82 62.5999 142.02 63.3999 141.18 64.3199C140.34 65.2399 139.54 66.1799 138.78 67.1399C138.06 68.0999 137.46 68.9599 136.98 69.7199C136.54 70.4399 136.32 70.9399 136.32 71.2199C136.32 71.2199 136.3 71.3199 136.26 71.5199C136.26 71.7199 136.18 71.9199 136.02 72.1199C135.5 72.6799 134.92 73.6799 134.28 75.1199C133.68 76.5599 133.1 78.1999 132.54 80.0399C131.98 81.8399 131.5 83.6399 131.1 85.4399C130.74 87.1999 130.52 88.7399 130.44 90.0599C130.36 91.1399 130.32 91.8799 130.32 92.2799C130.32 92.6799 130.4 92.9999 130.56 93.2399C130.72 93.4399 130.98 93.8399 131.34 94.4399C131.58 94.8399 131.98 95.1399 132.54 95.3399C133.14 95.5399 133.74 95.5799 134.34 95.4599Z" fill="white"/>
<path d="M158.858 93.0599C158.418 92.7799 158.018 92.4199 157.658 91.9799C157.298 91.4999 157.118 90.8999 157.118 90.1799C157.118 89.7799 157.198 89.0999 157.358 88.1399C157.518 87.1799 157.738 86.0999 158.018 84.8999C158.298 83.6999 158.578 82.5799 158.858 81.5399C159.258 80.8199 159.598 80.0999 159.878 79.3799C160.158 78.6599 160.298 78.2199 160.298 78.0599C160.378 77.5799 160.478 77.0199 160.598 76.3799C160.758 75.7399 160.918 75.1599 161.078 74.6399C161.238 74.1199 161.358 73.8199 161.438 73.7399C161.638 73.5399 161.878 73.4199 162.158 73.3799C162.438 73.2999 162.718 73.3399 162.998 73.4999C163.318 73.6199 163.558 73.8799 163.718 74.2799C164.158 74.7599 164.378 75.3399 164.378 76.0199C164.378 76.6599 164.158 77.6199 163.718 78.8999C163.358 79.6999 162.998 80.6399 162.638 81.7199C162.278 82.7999 161.958 83.7999 161.678 84.7199C161.438 85.5999 161.298 86.1999 161.258 86.5199L160.058 86.8799C160.738 86.2399 161.378 85.5799 161.978 84.8999C162.578 84.1799 163.018 83.6199 163.298 83.2199C163.978 82.2999 164.558 81.5399 165.038 80.9399C165.558 80.2999 166.218 79.5399 167.018 78.6599C167.818 77.7399 168.598 77.1799 169.358 76.9799C170.158 76.7399 170.778 76.6199 171.218 76.6199C172.098 76.7799 172.798 77.2399 173.318 77.9999C173.878 78.7199 174.238 79.7999 174.398 81.2399C174.398 81.7999 174.338 82.4599 174.218 83.2199C174.138 83.9799 174.098 84.3599 174.098 84.3599C174.098 84.3599 174.418 83.9399 175.058 83.0999C175.738 82.2599 176.638 81.3399 177.758 80.3399C178.518 79.7799 179.258 79.4599 179.978 79.3799C180.698 79.2599 181.338 79.4999 181.898 80.0999C182.938 80.6599 183.618 81.5199 183.938 82.6799C184.258 83.7999 184.338 85.2399 184.178 86.9999C184.058 88.0399 184.038 88.8199 184.118 89.3399C184.198 89.8199 184.318 90.2999 184.478 90.7799C184.798 90.9399 184.858 91.2799 184.658 91.7999C184.458 92.2799 184.218 92.5199 183.938 92.5199C183.538 92.5199 183.078 92.4399 182.558 92.2799C182.078 92.1199 181.638 91.8599 181.238 91.4999C180.878 91.0999 180.698 90.5599 180.698 89.8799V86.1599C180.698 85.2799 180.658 84.5599 180.578 83.9999C180.538 83.4399 180.438 83.0999 180.278 82.9799C179.838 82.7399 179.198 82.9999 178.358 83.7599C177.518 84.5199 176.618 85.5399 175.658 86.8199C174.698 88.0999 173.798 89.4199 172.958 90.7799C172.198 92.0199 171.718 92.7399 171.518 92.9399C171.358 93.0999 171.058 93.0399 170.618 92.7599C169.738 92.4799 169.178 92.0999 168.938 91.6199C168.738 91.0999 168.718 90.5199 168.878 89.8799C169.078 89.1999 169.318 88.2799 169.598 87.1199C169.918 85.9599 170.218 84.8399 170.498 83.7599C170.778 82.6399 170.958 81.8399 171.038 81.3599C170.878 81.0399 170.598 80.9399 170.198 81.0599C169.838 81.1399 169.458 81.3199 169.058 81.5999C168.578 81.9199 167.998 82.5199 167.318 83.3999C166.638 84.2799 165.938 85.2999 165.218 86.4599C164.738 87.2199 164.238 87.9799 163.718 88.7399C163.198 89.4599 162.718 90.0999 162.278 90.6599C161.838 91.2199 161.458 91.6399 161.138 91.9199C160.578 92.7999 160.198 93.2799 159.998 93.3599C159.798 93.4399 159.418 93.3399 158.858 93.0599Z" fill="white"/>
<path d="M187.585 91.4399C187.545 91.2399 187.505 90.8399 187.465 90.2399C187.425 89.5999 187.305 89.1999 187.105 89.0399C187.225 88.1199 187.325 87.2799 187.405 86.5199C187.485 85.7599 187.645 85.0199 187.885 84.2999C188.005 83.8999 188.205 83.3799 188.485 82.7399C188.805 82.0999 189.145 81.4799 189.505 80.8799C189.865 80.2399 190.185 79.7999 190.465 79.5599C190.745 79.3199 190.985 79.0399 191.185 78.7199C191.425 78.3999 191.685 78.1599 191.965 77.9999C192.205 77.7999 192.345 77.5799 192.385 77.3399C192.465 77.0999 192.625 76.9199 192.865 76.7999C193.465 76.3999 193.945 76.0399 194.305 75.7199C194.665 75.3999 195.045 75.1199 195.445 74.8799C195.885 74.6399 196.465 74.4199 197.185 74.2199C197.985 73.9799 198.565 73.8199 198.925 73.7399C199.325 73.6199 199.705 73.5799 200.065 73.6199C200.425 73.6599 200.965 73.7799 201.685 73.9799C201.685 73.7399 201.665 73.4599 201.625 73.1399C201.585 72.7799 201.565 72.3999 201.565 71.9999C201.645 71.4399 201.625 70.8999 201.505 70.3799C201.425 69.8199 201.345 69.4199 201.265 69.1799C201.025 68.8999 200.885 68.4599 200.845 67.8599C200.805 67.2199 200.625 66.7199 200.305 66.3599C200.425 65.5999 200.145 64.8799 199.465 64.1999C198.825 63.4799 198.045 62.9199 197.125 62.5199C196.205 62.0799 195.345 61.9199 194.545 62.0399C194.105 62.0799 193.645 62.1399 193.165 62.2199C192.685 62.2999 192.245 62.4999 191.845 62.8199C191.325 62.8599 190.905 62.8799 190.585 62.8799C190.265 62.8799 189.965 62.7799 189.685 62.5799C189.245 61.9399 188.945 61.4799 188.785 61.1999C188.665 60.9199 188.685 60.6999 188.845 60.5399C189.005 60.3399 189.285 60.1599 189.685 59.9999C190.125 59.7999 190.665 59.4799 191.305 59.0399C191.745 59.1999 192.065 59.1799 192.265 58.9799C192.465 58.7799 192.785 58.7599 193.225 58.9199C193.545 58.7199 194.065 58.6599 194.785 58.7399C195.505 58.8199 195.945 58.8999 196.105 58.9799C196.225 59.0599 196.345 59.1199 196.465 59.1599C196.585 59.1599 196.705 59.1799 196.825 59.2199C198.225 59.4999 199.445 60.0599 200.485 60.8999C201.565 61.7399 202.425 62.8199 203.065 64.1399C203.305 64.6599 203.545 65.1799 203.785 65.6999C204.025 66.2199 204.265 66.7199 204.505 67.1999C204.585 67.4399 204.665 67.9399 204.745 68.6999C204.865 69.4199 204.965 70.1199 205.045 70.7999C205.165 71.4399 205.225 71.8199 205.225 71.9399C205.305 72.3399 205.345 72.7199 205.345 73.0799C205.345 73.4399 205.305 73.8199 205.225 74.2199C204.745 77.3799 204.025 80.2799 203.065 82.9199C202.105 85.5599 200.805 88.2399 199.165 90.9599C198.845 91.4799 198.405 91.9999 197.845 92.5199C197.285 93.0399 196.745 93.5199 196.225 93.9599C195.585 94.5199 194.885 94.9199 194.125 95.1599C193.365 95.3599 192.525 95.4799 191.605 95.5199C190.485 94.6399 189.665 93.9999 189.145 93.5999C188.625 93.1999 188.285 92.8599 188.125 92.5799C187.965 92.2999 187.785 91.9199 187.585 91.4399ZM192.205 92.5799C192.445 92.3799 192.705 92.2599 192.985 92.2199C193.305 92.1399 193.545 91.9199 193.705 91.5599C194.225 91.1599 194.805 90.5199 195.445 89.6399C196.125 88.7599 196.765 87.8199 197.365 86.8199C197.965 85.7799 198.425 84.8799 198.745 84.1199C198.905 83.6799 199.045 83.2599 199.165 82.8599C199.325 82.4199 199.525 82.0199 199.765 81.6599C200.165 80.8999 200.485 79.9999 200.725 78.9599C200.965 77.8799 200.945 77.0599 200.665 76.4999C198.625 77.1799 196.945 78.0999 195.625 79.2599C194.305 80.3799 193.105 81.9799 192.025 84.0599C191.905 84.8999 191.665 85.6999 191.305 86.4599C190.985 87.1799 190.785 87.9599 190.705 88.7999C190.505 89.1999 190.405 89.6399 190.405 90.1199C190.445 90.5599 190.545 91.0799 190.705 91.6799C191.225 92.0799 191.505 92.2999 191.545 92.3399C191.625 92.3399 191.845 92.4199 192.205 92.5799Z" fill="white"/>
<path d="M217.127 95.2199C215.767 95.5799 214.807 95.7599 214.247 95.7599C213.687 95.7599 213.087 95.4799 212.447 94.9199C212.247 94.7199 212.127 94.5199 212.087 94.3199C212.047 94.0799 211.947 93.9399 211.787 93.8999C211.747 93.6199 211.767 93.3999 211.847 93.2399C211.967 93.0399 212.227 92.8599 212.627 92.6999C213.227 93.0599 213.987 93.1599 214.907 92.9999C215.827 92.8399 216.727 92.4999 217.607 91.9799C218.527 91.4199 219.247 90.7599 219.767 89.9999C220.567 89.0399 221.187 88.1399 221.627 87.2999C222.067 86.4199 222.307 85.6399 222.347 84.9599C222.347 84.5599 222.287 84.2799 222.167 84.1199C222.087 83.9199 221.887 83.6199 221.567 83.2199C220.847 83.4599 220.187 83.7399 219.587 84.0599C219.027 84.3799 218.567 84.7199 218.207 85.0799C217.007 86.0799 216.067 86.8999 215.387 87.5399C214.747 88.1799 214.187 88.8199 213.707 89.4599C213.267 90.0999 212.707 90.9599 212.027 92.0399C211.707 92.4399 211.407 92.7399 211.127 92.9399C210.887 93.1399 210.627 93.2399 210.347 93.2399C210.467 94.0399 210.187 94.5199 209.507 94.6799C208.627 94.4799 207.987 94.2199 207.587 93.8999C207.187 93.5399 207.067 92.8599 207.227 91.8599C207.387 91.2999 207.547 90.6399 207.707 89.8799C207.867 89.0799 208.047 88.4199 208.247 87.8999C209.207 85.3399 210.047 83.0599 210.767 81.0599C211.527 79.0599 212.187 77.6399 212.747 76.7999L214.067 73.3799C214.747 73.4199 215.267 73.5599 215.627 73.7999C215.987 73.9999 216.407 74.4999 216.887 75.2999C216.887 75.4999 216.687 76.0799 216.287 77.0399C215.927 77.9599 215.487 79.0199 214.967 80.2199C214.487 81.4199 214.027 82.5399 213.587 83.5799C213.187 84.5799 212.907 85.2799 212.747 85.6799C212.587 86.1199 212.707 86.0399 213.107 85.4399C213.547 84.8399 214.307 84.0799 215.387 83.1599C215.907 82.6399 216.547 82.1599 217.307 81.7199C218.067 81.2399 218.707 80.8799 219.227 80.6399C219.787 80.3999 220.247 80.2599 220.607 80.2199C220.967 80.1799 221.227 80.1399 221.387 80.0999C222.387 80.0999 223.187 80.3599 223.787 80.8799C224.387 81.3599 224.807 81.9199 225.047 82.5599C225.327 83.1999 225.467 83.7199 225.467 84.1199C225.587 84.7599 225.667 85.3799 225.707 85.9799C225.787 86.5399 225.747 87.1399 225.587 87.7799C225.467 88.0999 225.247 88.5399 224.927 89.0999C224.607 89.6599 224.227 90.2399 223.787 90.8399C223.387 91.3999 222.907 91.8599 222.347 92.2199C221.987 92.5799 221.507 92.9599 220.907 93.3599C220.307 93.7599 219.667 94.1399 218.987 94.4999C218.347 94.8199 217.727 95.0599 217.127 95.2199ZM229.607 96.1799C228.887 96.0999 228.287 95.8799 227.807 95.5199C227.367 95.1199 227.047 94.5399 226.847 93.7799C226.847 93.0999 226.927 92.4799 227.087 91.9199C227.287 91.3199 227.447 90.7399 227.567 90.1799C227.767 89.2599 228.047 88.3399 228.407 87.4199C228.767 86.4999 229.087 85.5799 229.367 84.6599C229.607 84.0999 229.807 83.5599 229.967 83.0399C230.127 82.5199 230.287 81.9999 230.447 81.4799C230.647 80.8399 230.847 80.2199 231.047 79.6199C231.247 79.0199 231.447 78.4199 231.647 77.8199C231.807 77.2999 231.927 76.7599 232.007 76.1999C232.127 75.6399 232.227 75.0799 232.307 74.5199C232.747 74.0399 233.227 73.8399 233.747 73.9199C234.307 73.9999 234.987 74.4599 235.787 75.2999C235.987 75.7799 236.087 76.2199 236.087 76.6199C236.087 76.9799 235.987 77.3599 235.787 77.7599C235.627 78.1199 235.407 78.6599 235.127 79.3799C234.887 80.0999 234.627 80.8199 234.347 81.5399C234.107 82.2199 233.927 82.7399 233.807 83.0999C233.727 83.5399 233.507 84.2599 233.147 85.2599C232.827 86.2599 232.487 87.2999 232.127 88.3799C231.767 89.4199 231.507 90.2599 231.347 90.8999C231.107 91.4999 230.927 92.0799 230.807 92.6399C230.687 93.1999 230.567 93.8999 230.447 94.7399C230.527 95.0999 230.467 95.3999 230.267 95.6399C230.107 95.8399 229.887 96.0199 229.607 96.1799Z" fill="white"/>
<path d="M255.726 95.8199C255.566 95.8199 255.346 95.7999 255.066 95.7599C254.826 95.7199 254.626 95.6199 254.466 95.4599C254.306 95.4599 254.026 95.3999 253.626 95.2799C253.226 95.1599 252.866 95.0199 252.546 94.8599C252.146 94.6999 251.606 94.3799 250.926 93.8999C250.246 93.3799 249.566 92.8199 248.886 92.2199C248.206 91.6199 247.626 91.0599 247.146 90.5399C246.706 90.0199 246.486 89.6399 246.486 89.3999C246.486 89.1999 246.386 89.0999 246.186 89.0999C246.186 89.0999 246.126 89.0399 246.006 88.9199C245.886 88.7599 245.826 88.5999 245.826 88.4399C245.826 88.0399 245.626 87.8399 245.226 87.8399C245.226 87.8399 244.886 88.1199 244.206 88.6799C243.526 89.2399 242.786 89.9199 241.986 90.7199C240.866 91.8399 240.026 92.6599 239.466 93.1799C238.946 93.6599 238.526 93.8999 238.206 93.8999C237.886 93.8999 237.526 93.7799 237.126 93.5399C236.726 93.2999 236.366 93.0199 236.046 92.6999C235.766 92.3399 235.626 91.9999 235.626 91.6799C235.626 91.6799 236.026 91.2199 236.826 90.2999C237.666 89.3799 238.646 88.4399 239.766 87.4799L243.606 83.6999L242.946 81.4199C242.666 80.7799 242.366 80.1199 242.046 79.4399C241.766 78.7199 241.546 78.1199 241.386 77.6399C240.906 76.9599 240.646 76.5399 240.606 76.3799C240.606 76.1799 240.766 75.8399 241.086 75.3599C241.406 75.0399 241.666 74.8399 241.866 74.7599C242.106 74.6399 242.466 74.7399 242.946 75.0599C243.186 75.0599 243.506 75.3999 243.906 76.0799C244.306 76.7199 244.666 77.4399 244.986 78.2399C245.346 78.9999 245.526 79.5399 245.526 79.8599C245.526 80.4999 245.766 80.7599 246.246 80.6399C246.726 80.5199 247.446 80.1399 248.406 79.4999C248.886 79.0599 249.266 78.6999 249.546 78.4199C249.826 78.0999 249.966 77.9399 249.966 77.9399C250.086 77.8199 250.446 77.5599 251.046 77.1599C251.646 76.7199 252.266 76.2799 252.906 75.8399C253.546 75.3999 253.966 75.1399 254.166 75.0599C254.486 74.8199 254.846 74.8199 255.246 75.0599C255.646 75.2599 255.986 75.5799 256.266 76.0199C256.546 76.4199 256.686 76.8399 256.686 77.2799C256.686 77.7599 256.566 78.1399 256.326 78.4199C256.086 78.6999 255.566 79.0599 254.766 79.4999C254.046 80.0199 253.406 80.4799 252.846 80.8799C252.326 81.2799 251.766 81.7199 251.166 82.1999C250.606 82.6399 249.886 83.2399 249.006 83.9999L247.446 85.2599L248.406 86.8799C248.566 87.1599 248.786 87.5599 249.066 88.0799C249.386 88.5999 249.686 88.9399 249.966 89.0999C250.206 89.4199 250.666 89.8599 251.346 90.4199C252.026 90.9799 252.686 91.4999 253.326 91.9799C254.006 92.4199 254.386 92.6399 254.466 92.6399C254.626 92.6399 254.806 92.6999 255.006 92.8199C255.206 92.9399 255.446 93.0799 255.726 93.2399C256.046 93.5599 256.246 93.9199 256.326 94.3199C256.446 94.7199 256.446 95.0799 256.326 95.3999C256.246 95.6799 256.046 95.8199 255.726 95.8199Z" fill="white"/>
<path d="M274.984 86.6399C275.024 85.9999 275.144 85.1999 275.344 84.2399C275.544 83.2799 275.724 82.3599 275.884 81.4799C276.084 80.5999 276.144 79.9799 276.064 79.6199C275.904 79.4199 275.724 79.2399 275.524 79.0799C275.324 78.9199 275.124 78.7599 274.924 78.5999C275.004 78.1599 275.084 77.7599 275.164 77.3999C275.284 77.0399 275.584 76.7399 276.064 76.4999L276.484 76.6799C276.604 76.6399 276.724 76.5999 276.844 76.5599C276.964 76.4799 277.064 76.4199 277.144 76.3799C277.544 75.6599 277.904 74.8799 278.224 74.0399C278.544 73.1599 278.824 72.3399 279.064 71.5799C279.264 70.8999 279.564 70.1199 279.964 69.2399C280.364 68.3599 280.764 67.6399 281.164 67.0799C281.404 66.7599 281.604 66.4599 281.764 66.1799C281.924 65.8599 282.084 65.5399 282.244 65.2199C282.604 64.4999 283.104 63.7199 283.744 62.8799C284.384 61.9999 285.084 61.1799 285.844 60.4199C286.644 59.6199 287.384 59.0199 288.064 58.6199C288.744 58.1799 289.324 57.9399 289.804 57.8999C290.284 57.8199 290.904 57.7599 291.664 57.7199C292.064 57.9599 292.544 58.3599 293.104 58.9199C293.704 59.4799 294.004 59.9999 294.004 60.4799C294.004 60.8799 294.004 61.3199 294.004 61.7999C294.004 62.2399 293.904 62.6399 293.704 62.9999C293.744 63.2799 293.724 63.5799 293.644 63.8999C293.564 64.1799 293.464 64.4799 293.344 64.7999C293.304 64.9599 293.244 65.1399 293.164 65.3399C293.124 65.5399 293.084 65.7399 293.044 65.9399C292.284 67.4999 291.584 68.8199 290.944 69.8999C290.344 70.9399 289.684 71.8599 288.964 72.6599C288.284 73.4199 287.464 74.2199 286.504 75.0599C285.584 75.8599 284.464 76.7999 283.144 77.8799C283.824 78.0799 284.424 78.4199 284.944 78.8999C285.464 79.3399 285.744 79.9599 285.784 80.7599C285.784 80.9599 285.764 81.1799 285.724 81.4199C285.724 81.6599 285.744 81.8999 285.784 82.1399C285.864 82.6599 285.904 83.1599 285.904 83.6399C285.944 84.0799 285.984 84.5399 286.024 85.0199C286.104 85.4999 286.104 86.0799 286.024 86.7599C285.944 87.4399 285.864 88.0199 285.784 88.4999C285.744 88.6599 285.684 88.7599 285.604 88.7999C285.564 88.7999 285.544 88.8999 285.544 89.0999C285.544 89.7399 285.404 90.2999 285.124 90.7799C284.844 91.2599 284.544 91.7999 284.224 92.3999C284.104 92.5999 283.944 92.7799 283.744 92.9399C283.544 93.0599 283.364 93.2199 283.204 93.4199C282.524 94.2199 281.824 94.6799 281.104 94.7999C280.424 94.9199 279.624 95.0999 278.704 95.3399L278.584 95.4599C278.184 95.1399 277.884 94.9399 277.684 94.8599C277.524 94.7799 277.224 94.6599 276.784 94.4999C276.664 93.9399 276.384 93.3799 275.944 92.8199C275.544 92.2599 275.304 91.6799 275.224 91.0799C275.184 90.7999 275.164 90.5399 275.164 90.2999C275.204 90.0199 275.124 89.7599 274.924 89.5199C275.204 89.3199 275.244 89.0799 275.044 88.7999C274.844 88.5199 274.864 88.2599 275.104 88.0199C275.104 87.9399 275.104 87.8599 275.104 87.7799C275.144 87.6999 275.164 87.6399 275.164 87.5999C275.124 87.5199 275.084 87.3999 275.044 87.2399C275.004 87.0399 274.984 86.8399 274.984 86.6399ZM280.024 91.6799C280.984 90.7599 281.624 89.8199 281.944 88.8599C282.264 87.8599 282.424 86.8399 282.424 85.7999C282.464 84.7199 282.484 83.5799 282.484 82.3799C282.484 82.1799 282.444 81.9799 282.364 81.7799C282.324 81.5799 282.344 81.3999 282.424 81.2399C282.264 80.7999 282.104 80.3199 281.944 79.7999C281.784 79.2399 281.484 78.7599 281.044 78.3599C280.724 78.5199 280.464 78.6999 280.264 78.8999C280.064 79.0999 279.804 79.4399 279.484 79.9199C279.284 80.3199 279.084 81.0599 278.884 82.1399C278.724 83.2199 278.604 84.4199 278.524 85.7399C278.444 87.0199 278.444 88.2199 278.524 89.3399C278.644 90.4599 278.884 91.2399 279.244 91.6799H280.024ZM287.464 63.2999C286.104 64.7799 284.904 66.4599 283.864 68.3399C282.824 70.2199 282.004 72.1199 281.404 74.0399L282.064 74.3999L285.064 71.9399C285.184 71.8599 285.424 71.5999 285.784 71.1599C286.144 70.7199 286.484 70.2599 286.804 69.7799C287.164 69.2599 287.364 68.9399 287.404 68.8199C287.764 68.5399 288.124 68.0199 288.484 67.2599C288.884 66.4999 289.244 65.6599 289.564 64.7399C289.884 63.7799 290.124 62.8799 290.284 62.0399C290.484 61.1599 290.544 60.4999 290.464 60.0599L290.044 60.2399C289.644 60.7599 289.224 61.2799 288.784 61.7999C288.344 62.2799 287.904 62.7799 287.464 63.2999Z" fill="white"/>
<path d="M302.54 109.38C302.26 109.26 301.96 109.06 301.64 108.78C301.32 108.5 301.06 108.18 300.86 107.82C300.66 107.5 300.56 107.22 300.56 106.98C300.56 106.74 300.66 106.1 300.86 105.06C301.06 104.06 301.32 102.82 301.64 101.34C302 99.8999 302.38 98.4199 302.78 96.8999C303.22 95.4199 303.66 94.0999 304.1 92.9399C304.18 92.7399 304.44 92.0799 304.88 90.9599C305.36 89.7999 305.82 88.3999 306.26 86.7599C306.58 85.7199 307 84.5399 307.52 83.2199C308.04 81.8999 308.58 80.5799 309.14 79.2599C309.7 77.8999 310.16 76.6999 310.52 75.6599C310.88 74.6199 311.18 73.7799 311.42 73.1399C311.7 72.4599 311.86 72.0399 311.9 71.8799C311.98 71.6399 312.1 71.4399 312.26 71.2799C312.46 71.0799 312.66 70.9199 312.86 70.7999C313.06 70.6399 313.22 70.5399 313.34 70.4999C314.06 70.2999 314.68 70.5999 315.2 71.3999C315.4 71.7599 315.44 72.1799 315.32 72.6599C315.2 73.1399 314.98 73.7399 314.66 74.4599L314.24 75.6599L316.4 75.1799C316.76 75.1799 317.2 75.1999 317.72 75.2399C318.28 75.2399 318.82 75.2399 319.34 75.2399C319.86 75.2399 320.24 75.2799 320.48 75.3599C321.44 75.3999 322.1 75.5799 322.46 75.8999C322.86 76.2199 323.2 76.6399 323.48 77.1599C323.68 77.3599 323.92 77.6399 324.2 77.9999C324.48 78.3199 324.64 78.6399 324.68 78.9599C324.84 79.6399 324.84 80.3799 324.68 81.1799C324.56 81.9399 324.32 82.6999 323.96 83.4599C323.64 84.2199 323.2 84.9199 322.64 85.5599C322.12 86.1599 321.56 86.6599 320.96 87.0599C320.56 87.2199 320.2 87.3999 319.88 87.5999C319.56 87.7599 319.4 87.8399 319.4 87.8399C319.36 88.0399 318.92 88.3599 318.08 88.7999C317.24 89.1999 316.28 89.5799 315.2 89.9399C314.12 90.2999 313.18 90.5399 312.38 90.6599C312.1 90.6999 311.7 90.7399 311.18 90.7799C310.66 90.8199 310.26 90.7599 309.98 90.5999C309.54 90.5199 309.24 90.4799 309.08 90.4799C308.92 90.4799 308.84 90.5599 308.84 90.7199C308.8 90.7999 308.52 91.6399 308 93.2399C307.48 94.8399 306.94 96.6999 306.38 98.8199C305.62 101.14 305 102.98 304.52 104.34C304.04 105.74 303.66 106.78 303.38 107.46C303.14 108.14 302.96 108.6 302.84 108.84C302.72 109.12 302.62 109.3 302.54 109.38ZM310.04 87.2399C310.16 87.4799 310.54 87.5599 311.18 87.4799C311.86 87.3599 312.66 87.1199 313.58 86.7599C314.54 86.3599 315.48 85.9199 316.4 85.4399C317.32 84.9199 318.08 84.3999 318.68 83.8799C319.56 82.8799 320.28 81.9599 320.84 81.1199C321.4 80.2399 321.48 79.6599 321.08 79.3799C320.64 78.7399 319.82 78.4399 318.62 78.4799C317.42 78.5199 315.94 79.0199 314.18 79.9799C313.5 80.2199 312.98 80.5399 312.62 80.9399C312.3 81.2999 312.02 81.7599 311.78 82.3199C311.54 82.8799 311.24 83.5599 310.88 84.3599C310.52 85.2399 310.28 85.8999 310.16 86.3399C310.04 86.7799 310 87.0799 310.04 87.2399Z" fill="white"/>
<path d="M331.996 95.0999C331.476 95.0999 331.056 94.9999 330.736 94.7999C330.456 94.5999 330.096 94.3199 329.656 93.9599C328.896 93.1599 328.356 92.3999 328.036 91.6799C327.716 90.9199 327.616 90.1999 327.736 89.5199C327.856 89.1999 327.896 88.8999 327.856 88.6199C327.856 88.2999 327.856 88.1399 327.856 88.1399C327.656 87.9399 327.596 87.8199 327.676 87.7799C327.756 87.6999 327.836 87.5799 327.916 87.4199C328.156 87.4199 328.236 87.1999 328.156 86.7599C328.076 86.4399 328.236 85.7399 328.636 84.6599C329.036 83.5799 329.536 82.5599 330.136 81.5999C330.376 81.1999 330.736 80.6799 331.216 80.0399C331.696 79.3599 332.216 78.6999 332.776 78.0599C333.376 77.3799 333.916 76.8399 334.396 76.4399C335.396 75.5999 336.276 74.9799 337.036 74.5799C337.796 74.1799 338.616 73.8799 339.496 73.6799C340.376 73.4799 340.976 73.3799 341.296 73.3799C341.656 73.3799 342.136 73.6999 342.736 74.3399C343.656 74.7399 344.316 75.2199 344.716 75.7799C345.156 76.3399 345.436 77.1599 345.556 78.2399C345.676 79.4399 345.576 80.8199 345.256 82.3799C344.976 83.8999 344.036 85.7999 342.436 88.0799C341.436 89.5199 340.516 90.5999 339.676 91.3199C338.836 91.9999 337.836 92.6799 336.676 93.3599C335.836 93.9199 335.076 94.3399 334.396 94.6199C333.716 94.8599 332.916 95.0199 331.996 95.0999ZM337.756 88.7399C338.716 87.6599 339.476 86.6399 340.036 85.6799C340.636 84.7199 341.196 83.4999 341.716 82.0199C341.876 81.5799 341.976 81.0399 342.016 80.3999C342.056 79.7199 342.036 79.0999 341.956 78.5399C341.916 77.9399 341.776 77.5999 341.536 77.5199C341.056 77.2399 340.476 77.1599 339.796 77.2799C339.116 77.3599 338.376 77.7399 337.576 78.4199C336.336 79.4599 335.256 80.7599 334.336 82.3199C333.416 83.8399 332.516 85.5799 331.636 87.5399C331.036 88.9799 330.896 90.1399 331.216 91.0199C331.576 91.8599 332.316 92.1599 333.436 91.9199C334.596 91.6399 336.036 90.5799 337.756 88.7399Z" fill="white"/>
<path d="M353.656 95.6399C353.536 95.6799 353.256 95.6199 352.816 95.4599C352.376 95.2599 351.896 95.0199 351.376 94.7399C350.896 94.4199 350.516 94.1199 350.236 93.8399C349.916 93.4399 349.616 93.0399 349.336 92.6399C349.096 92.1999 348.976 91.6999 348.976 91.1399C348.696 90.5399 348.536 89.9199 348.496 89.2799C348.496 88.5999 348.476 87.9399 348.436 87.2999C348.396 86.2999 348.616 85.2799 349.096 84.2399C349.576 83.1599 349.956 82.3599 350.236 81.8399C350.436 81.2799 350.836 80.5599 351.436 79.6799C352.076 78.7599 352.856 77.8599 353.776 76.9799C354.696 76.0999 355.656 75.4199 356.656 74.9399C357.296 74.6199 357.936 74.3599 358.576 74.1599C359.256 73.9199 360.036 73.9599 360.916 74.2799C361.356 74.3999 361.676 74.5599 361.876 74.7599C362.076 74.9599 362.296 75.1599 362.536 75.3599C362.856 75.1199 363.116 74.5399 363.316 73.6199C363.556 72.6599 363.696 71.5799 363.736 70.3799C363.816 69.1399 363.756 67.9599 363.556 66.8399C363.396 65.6799 363.056 64.7599 362.536 64.0799C361.576 62.7599 360.516 61.8999 359.356 61.4999C358.196 61.0999 356.876 61.2199 355.396 61.8599C354.916 61.6599 354.476 61.2799 354.076 60.7199C353.716 60.1599 353.616 59.5999 353.776 59.0399C354.096 58.7599 354.496 58.4799 354.976 58.1999C355.456 57.9199 355.936 57.7399 356.416 57.6599C356.976 57.5399 357.536 57.4599 358.096 57.4199C358.696 57.3799 359.316 57.5399 359.956 57.8999C362.036 58.5799 363.596 59.5399 364.636 60.7799C365.716 61.9799 366.456 63.4399 366.856 65.1599C367.256 66.8799 367.496 68.8599 367.576 71.0999C367.656 71.7399 367.676 72.3199 367.636 72.8399C367.636 73.3199 367.576 74.1399 367.456 75.2999C367.056 75.8199 366.896 76.4399 366.976 77.1599C367.096 77.8399 367.016 78.4799 366.736 79.0799C366.696 79.7599 366.536 80.3199 366.256 80.7599C365.976 81.1999 365.836 81.6199 365.836 82.0199C365.116 84.0199 364.136 85.9799 362.896 87.8999C361.696 89.8199 360.316 91.4799 358.756 92.8799C357.196 94.2799 355.496 95.1999 353.656 95.6399ZM353.296 91.7399C353.696 91.8999 354.296 91.7399 355.096 91.2599C355.896 90.7399 356.716 90.0599 357.556 89.2199C358.396 88.3399 359.096 87.4999 359.656 86.6999C359.856 86.4199 360.116 85.9599 360.436 85.3199C360.796 84.6799 361.116 84.0599 361.396 83.4599C361.716 82.8599 361.896 82.4799 361.936 82.3199C362.296 81.3199 362.496 80.3799 362.536 79.4999C362.616 78.5799 362.516 77.9799 362.236 77.6999C361.796 77.1799 361.076 77.0599 360.076 77.3399C359.116 77.6199 358.196 78.0799 357.316 78.7199C356.676 79.1999 356.096 79.8399 355.576 80.6399C355.096 81.3999 354.596 82.0999 354.076 82.7399C354.116 83.0199 354.036 83.2599 353.836 83.4599C353.676 83.6599 353.496 83.8599 353.296 84.0599C352.776 85.0599 352.436 85.9999 352.276 86.8799C352.116 87.7199 352.036 88.2399 352.036 88.4399C352.036 89.0799 352.136 89.7399 352.336 90.4199C352.536 91.0999 352.856 91.5399 353.296 91.7399Z" fill="white"/>
<path d="M383.629 95.3399C383.389 95.2599 383.149 95.1999 382.909 95.1599C382.669 95.0799 382.429 94.9999 382.189 94.9199C381.989 94.8399 381.749 94.7799 381.469 94.7399C381.069 94.1799 380.909 93.4999 380.989 92.6999C381.069 91.8599 381.249 90.9999 381.529 90.1199C381.849 89.2399 382.149 88.3799 382.429 87.5399C382.749 86.6999 382.929 85.9799 382.969 85.3799C382.929 85.2199 382.869 85.1799 382.789 85.2599C382.709 85.2999 382.669 85.3599 382.669 85.4399C382.389 85.7599 381.989 85.9799 381.469 86.0999C380.949 86.2199 380.469 86.3199 380.029 86.3999C379.269 86.5199 378.509 86.6599 377.749 86.8199C376.989 86.9799 376.249 87.1599 375.529 87.3599C375.409 87.2799 375.269 87.1799 375.109 87.0599C374.989 86.9399 374.869 86.8399 374.749 86.7599C374.469 86.7599 374.229 87.0199 374.029 87.5399C373.829 88.0599 373.649 88.6999 373.489 89.4599C373.329 90.1799 373.169 90.8799 373.009 91.5599C372.889 92.1999 372.769 92.6599 372.649 92.9399C372.009 93.0199 371.549 93.0399 371.269 92.9999C371.029 92.9599 370.569 92.8399 369.889 92.6399C369.569 92.1999 369.389 91.7799 369.349 91.3799C369.349 90.9799 369.409 90.5399 369.529 90.0599C369.729 89.1399 369.889 88.3999 370.009 87.8399C370.169 87.2799 370.429 86.5599 370.789 85.6799C370.989 85.2399 371.169 84.8199 371.329 84.4199C371.529 83.9799 371.629 83.4999 371.629 82.9799C371.949 82.5799 372.169 82.1399 372.289 81.6599C372.409 81.1799 372.549 80.6999 372.709 80.2199C373.349 78.5799 373.849 77.3199 374.209 76.4399C374.609 75.5199 374.889 74.7999 375.049 74.2799C375.209 73.7599 375.309 73.2799 375.349 72.8399C375.389 72.2799 375.729 71.9999 376.369 71.9999C376.769 71.9999 377.189 72.1599 377.629 72.4799C378.069 72.7599 378.409 73.1199 378.649 73.5599C378.889 73.9999 378.909 74.4599 378.709 74.9399C378.589 75.2599 378.389 75.7799 378.109 76.4999C377.869 77.1799 377.589 77.9399 377.269 78.7799C376.989 79.5799 376.709 80.3399 376.429 81.0599C376.189 81.7399 375.989 82.2399 375.829 82.5599C375.789 82.7199 375.709 82.8599 375.589 82.9799C375.469 83.0599 375.409 83.1999 375.409 83.3999C375.689 83.5999 376.149 83.6799 376.789 83.6399C377.469 83.5599 377.949 83.4399 378.229 83.2799C378.829 83.2799 379.409 83.2799 379.969 83.2799C380.569 83.2799 381.169 83.2799 381.769 83.2799C382.369 83.6399 382.829 84.1799 383.149 84.8999C383.429 84.1399 383.809 83.1399 384.289 81.8999C384.769 80.6199 385.229 79.3599 385.669 78.1199C386.109 76.8799 386.369 75.9399 386.449 75.2999C386.529 74.9399 386.689 74.6199 386.929 74.3399C387.169 74.0599 387.429 73.8399 387.709 73.6799C388.269 73.9599 388.809 74.1999 389.329 74.3999C389.889 74.5599 390.249 75.0199 390.409 75.7799C390.369 76.1399 390.289 76.4999 390.169 76.8599C390.049 77.1799 389.929 77.4999 389.809 77.8199C389.409 78.9799 388.909 80.2599 388.309 81.6599C387.709 83.0199 387.149 84.4199 386.629 85.8599C386.149 87.2599 385.809 88.5799 385.609 89.8199C385.609 89.9399 385.509 90.3399 385.309 91.0199C385.149 91.6999 384.969 92.3599 384.769 92.9999C384.609 93.6399 384.509 93.9799 384.469 94.0199C384.469 94.2999 384.389 94.5599 384.229 94.7999C384.069 94.9999 383.869 95.1799 383.629 95.3399Z" fill="white"/>
<path d="M403.631 95.2199C402.271 95.5799 401.311 95.7599 400.751 95.7599C400.191 95.7599 399.591 95.4799 398.951 94.9199C398.751 94.7199 398.631 94.5199 398.591 94.3199C398.551 94.0799 398.451 93.9399 398.291 93.8999C398.251 93.6199 398.271 93.3999 398.351 93.2399C398.471 93.0399 398.731 92.8599 399.131 92.6999C399.731 93.0599 400.491 93.1599 401.411 92.9999C402.331 92.8399 403.231 92.4999 404.111 91.9799C405.031 91.4199 405.751 90.7599 406.271 89.9999C407.071 89.0399 407.691 88.1399 408.131 87.2999C408.571 86.4199 408.811 85.6399 408.851 84.9599C408.851 84.5599 408.791 84.2799 408.671 84.1199C408.591 83.9199 408.391 83.6199 408.071 83.2199C407.351 83.4599 406.691 83.7399 406.091 84.0599C405.531 84.3799 405.071 84.7199 404.711 85.0799C403.511 86.0799 402.571 86.8999 401.891 87.5399C401.251 88.1799 400.691 88.8199 400.211 89.4599C399.771 90.0999 399.211 90.9599 398.531 92.0399C398.211 92.4399 397.911 92.7399 397.631 92.9399C397.391 93.1399 397.131 93.2399 396.851 93.2399C396.971 94.0399 396.691 94.5199 396.011 94.6799C395.131 94.4799 394.491 94.2199 394.091 93.8999C393.691 93.5399 393.571 92.8599 393.731 91.8599C393.891 91.2999 394.051 90.6399 394.211 89.8799C394.371 89.0799 394.551 88.4199 394.751 87.8999C395.711 85.3399 396.551 83.0599 397.271 81.0599C398.031 79.0599 398.691 77.6399 399.251 76.7999L400.571 73.3799C401.251 73.4199 401.771 73.5599 402.131 73.7999C402.491 73.9999 402.911 74.4999 403.391 75.2999C403.391 75.4999 403.191 76.0799 402.791 77.0399C402.431 77.9599 401.991 79.0199 401.471 80.2199C400.991 81.4199 400.531 82.5399 400.091 83.5799C399.691 84.5799 399.411 85.2799 399.251 85.6799C399.091 86.1199 399.211 86.0399 399.611 85.4399C400.051 84.8399 400.811 84.0799 401.891 83.1599C402.411 82.6399 403.051 82.1599 403.811 81.7199C404.571 81.2399 405.211 80.8799 405.731 80.6399C406.291 80.3999 406.751 80.2599 407.111 80.2199C407.471 80.1799 407.731 80.1399 407.891 80.0999C408.891 80.0999 409.691 80.3599 410.291 80.8799C410.891 81.3599 411.311 81.9199 411.551 82.5599C411.831 83.1999 411.971 83.7199 411.971 84.1199C412.091 84.7599 412.171 85.3799 412.211 85.9799C412.291 86.5399 412.251 87.1399 412.091 87.7799C411.971 88.0999 411.751 88.5399 411.431 89.0999C411.111 89.6599 410.731 90.2399 410.291 90.8399C409.891 91.3999 409.411 91.8599 408.851 92.2199C408.491 92.5799 408.011 92.9599 407.411 93.3599C406.811 93.7599 406.171 94.1399 405.491 94.4999C404.851 94.8199 404.231 95.0599 403.631 95.2199ZM416.111 96.1799C415.391 96.0999 414.791 95.8799 414.311 95.5199C413.871 95.1199 413.551 94.5399 413.351 93.7799C413.351 93.0999 413.431 92.4799 413.591 91.9199C413.791 91.3199 413.951 90.7399 414.071 90.1799C414.271 89.2599 414.551 88.3399 414.911 87.4199C415.271 86.4999 415.591 85.5799 415.871 84.6599C416.111 84.0999 416.311 83.5599 416.471 83.0399C416.631 82.5199 416.791 81.9999 416.951 81.4799C417.151 80.8399 417.351 80.2199 417.551 79.6199C417.751 79.0199 417.951 78.4199 418.151 77.8199C418.311 77.2999 418.431 76.7599 418.511 76.1999C418.631 75.6399 418.731 75.0799 418.811 74.5199C419.251 74.0399 419.731 73.8399 420.251 73.9199C420.811 73.9999 421.491 74.4599 422.291 75.2999C422.491 75.7799 422.591 76.2199 422.591 76.6199C422.591 76.9799 422.491 77.3599 422.291 77.7599C422.131 78.1199 421.911 78.6599 421.631 79.3799C421.391 80.0999 421.131 80.8199 420.851 81.5399C420.611 82.2199 420.431 82.7399 420.311 83.0999C420.231 83.5399 420.011 84.2599 419.651 85.2599C419.331 86.2599 418.991 87.2999 418.631 88.3799C418.271 89.4199 418.011 90.2599 417.851 90.8999C417.611 91.4999 417.431 92.0799 417.311 92.6399C417.191 93.1999 417.071 93.8999 416.951 94.7399C417.031 95.0999 416.971 95.3999 416.771 95.6399C416.611 95.8399 416.391 96.0199 416.111 96.1799Z" fill="white"/>
<path d="M442.23 95.8199C442.07 95.8199 441.85 95.7999 441.57 95.7599C441.33 95.7199 441.13 95.6199 440.97 95.4599C440.81 95.4599 440.53 95.3999 440.13 95.2799C439.73 95.1599 439.37 95.0199 439.05 94.8599C438.65 94.6999 438.11 94.3799 437.43 93.8999C436.75 93.3799 436.07 92.8199 435.39 92.2199C434.71 91.6199 434.13 91.0599 433.65 90.5399C433.21 90.0199 432.99 89.6399 432.99 89.3999C432.99 89.1999 432.89 89.0999 432.69 89.0999C432.69 89.0999 432.63 89.0399 432.51 88.9199C432.39 88.7599 432.33 88.5999 432.33 88.4399C432.33 88.0399 432.13 87.8399 431.73 87.8399C431.73 87.8399 431.39 88.1199 430.71 88.6799C430.03 89.2399 429.29 89.9199 428.49 90.7199C427.37 91.8399 426.53 92.6599 425.97 93.1799C425.45 93.6599 425.03 93.8999 424.71 93.8999C424.39 93.8999 424.03 93.7799 423.63 93.5399C423.23 93.2999 422.87 93.0199 422.55 92.6999C422.27 92.3399 422.13 91.9999 422.13 91.6799C422.13 91.6799 422.53 91.2199 423.33 90.2999C424.17 89.3799 425.15 88.4399 426.27 87.4799L430.11 83.6999L429.45 81.4199C429.17 80.7799 428.87 80.1199 428.55 79.4399C428.27 78.7199 428.05 78.1199 427.89 77.6399C427.41 76.9599 427.15 76.5399 427.11 76.3799C427.11 76.1799 427.27 75.8399 427.59 75.3599C427.91 75.0399 428.17 74.8399 428.37 74.7599C428.61 74.6399 428.97 74.7399 429.45 75.0599C429.69 75.0599 430.01 75.3999 430.41 76.0799C430.81 76.7199 431.17 77.4399 431.49 78.2399C431.85 78.9999 432.03 79.5399 432.03 79.8599C432.03 80.4999 432.27 80.7599 432.75 80.6399C433.23 80.5199 433.95 80.1399 434.91 79.4999C435.39 79.0599 435.77 78.6999 436.05 78.4199C436.33 78.0999 436.47 77.9399 436.47 77.9399C436.59 77.8199 436.95 77.5599 437.55 77.1599C438.15 76.7199 438.77 76.2799 439.41 75.8399C440.05 75.3999 440.47 75.1399 440.67 75.0599C440.99 74.8199 441.35 74.8199 441.75 75.0599C442.15 75.2599 442.49 75.5799 442.77 76.0199C443.05 76.4199 443.19 76.8399 443.19 77.2799C443.19 77.7599 443.07 78.1399 442.83 78.4199C442.59 78.6999 442.07 79.0599 441.27 79.4999C440.55 80.0199 439.91 80.4799 439.35 80.8799C438.83 81.2799 438.27 81.7199 437.67 82.1999C437.11 82.6399 436.39 83.2399 435.51 83.9999L433.95 85.2599L434.91 86.8799C435.07 87.1599 435.29 87.5599 435.57 88.0799C435.89 88.5999 436.19 88.9399 436.47 89.0999C436.71 89.4199 437.17 89.8599 437.85 90.4199C438.53 90.9799 439.19 91.4999 439.83 91.9799C440.51 92.4199 440.89 92.6399 440.97 92.6399C441.13 92.6399 441.31 92.6999 441.51 92.8199C441.71 92.9399 441.95 93.0799 442.23 93.2399C442.55 93.5599 442.75 93.9199 442.83 94.3199C442.95 94.7199 442.95 95.0799 442.83 95.3999C442.75 95.6799 442.55 95.8199 442.23 95.8199Z" fill="white"/>
<path d="M460.588 95.6999C460.268 95.5799 459.928 95.3399 459.568 94.9799C459.208 94.5799 458.908 94.1199 458.668 93.5999C458.428 93.0799 458.308 92.5999 458.308 92.1599C458.508 91.7199 458.768 90.9599 459.088 89.8799C459.408 88.7599 459.808 87.4799 460.288 86.0399C460.608 85.5999 460.848 85.0799 461.008 84.4799C461.208 83.8799 461.388 83.3399 461.548 82.8599C461.868 82.2199 462.248 81.3999 462.688 80.3999C463.128 79.3599 463.548 78.3199 463.948 77.2799C464.388 76.1999 464.768 75.2999 465.088 74.5799C465.528 73.5399 465.788 72.8999 465.868 72.6599C465.948 72.3799 466.008 72.1599 466.048 71.9999C466.048 71.6799 466.128 71.4199 466.288 71.2199C466.448 70.9799 466.608 70.8599 466.768 70.8599C466.928 70.6999 467.108 70.6199 467.308 70.6199C467.548 70.5799 467.748 70.5599 467.908 70.5599C468.348 70.5599 468.728 70.8599 469.048 71.4599C469.368 72.0199 469.528 72.5399 469.528 73.0199C469.528 73.4999 469.348 74.1799 468.988 75.0599C468.668 75.8999 468.288 76.7799 467.848 77.6999C467.448 78.6199 467.108 79.4199 466.828 80.0999C466.548 80.7799 466.468 81.1799 466.588 81.2999C466.588 81.2999 466.868 81.1799 467.428 80.9399C467.988 80.6599 468.588 80.2799 469.228 79.7999C469.668 79.5599 470.148 79.2599 470.668 78.8999C471.188 78.5399 471.688 78.1999 472.168 77.8799C472.648 77.5199 473.048 77.2999 473.368 77.2199C473.848 76.8999 474.348 76.5999 474.868 76.3199C475.388 75.9999 475.728 75.7599 475.888 75.5999C476.568 75.2799 477.068 75.1799 477.388 75.2999C477.748 75.4199 478.108 75.7199 478.468 76.1999C478.908 76.7199 478.988 77.1799 478.708 77.5799C478.428 77.9399 477.768 78.4399 476.728 79.0799C475.888 79.5999 474.868 80.2199 473.668 80.9399C472.508 81.6599 471.468 82.2999 470.548 82.8599C469.668 83.4199 469.168 83.7599 469.048 83.8799C469.048 83.8799 469.208 84.1799 469.528 84.7799C469.848 85.3799 470.168 85.9199 470.488 86.3999C470.808 87.0399 471.148 87.6399 471.508 88.1999C471.908 88.7199 472.108 89.0799 472.108 89.2799C472.428 90.1199 472.828 90.8199 473.308 91.3799C473.788 91.8999 474.328 92.2399 474.928 92.3999C475.568 92.5199 476.208 92.4399 476.848 92.1599C477.648 91.8399 478.228 91.7399 478.588 91.8599C478.988 91.9799 479.268 92.2799 479.428 92.7599C479.588 93.0799 479.628 93.3199 479.548 93.4799C479.508 93.5999 479.248 93.8999 478.768 94.3799C478.008 95.1399 477.228 95.6199 476.428 95.8199C475.668 96.0199 474.968 95.9599 474.328 95.6399C473.928 95.6399 473.468 95.4799 472.948 95.1599C472.428 94.7999 471.788 94.2199 471.028 93.4199C470.308 92.6199 469.408 91.4999 468.328 90.0599C468.328 89.8999 468.248 89.6799 468.088 89.3999C467.968 89.0799 467.828 88.7799 467.668 88.4999C467.508 88.1799 467.308 87.8399 467.068 87.4799C466.828 87.0799 466.708 86.8799 466.708 86.8799C466.708 86.7599 466.668 86.6599 466.588 86.5799C466.548 86.4599 466.468 86.3199 466.348 86.1599C466.268 85.9999 466.168 85.8199 466.048 85.6199C465.408 85.4199 464.948 85.5399 464.668 85.9799C464.388 86.4199 464.088 86.8799 463.768 87.3599C463.568 87.8799 463.308 88.6199 462.988 89.5799C462.708 90.4999 462.468 91.3999 462.268 92.2799C462.108 93.1599 462.068 93.7599 462.148 94.0799C462.148 94.7199 462.048 95.1599 461.848 95.3999C461.648 95.5999 461.228 95.6999 460.588 95.6999Z" fill="white"/>
<path d="M479.142 109.38C478.862 109.26 478.562 109.06 478.242 108.78C477.922 108.5 477.662 108.18 477.462 107.82C477.262 107.5 477.162 107.22 477.162 106.98C477.162 106.74 477.262 106.1 477.462 105.06C477.662 104.06 477.922 102.82 478.242 101.34C478.602 99.8999 478.982 98.4199 479.382 96.8999C479.822 95.4199 480.262 94.0999 480.702 92.9399C480.782 92.7399 481.042 92.0799 481.482 90.9599C481.962 89.7999 482.422 88.3999 482.862 86.7599C483.182 85.7199 483.602 84.5399 484.122 83.2199C484.642 81.8999 485.182 80.5799 485.742 79.2599C486.302 77.8999 486.762 76.6999 487.122 75.6599C487.482 74.6199 487.782 73.7799 488.022 73.1399C488.302 72.4599 488.462 72.0399 488.502 71.8799C488.582 71.6399 488.702 71.4399 488.862 71.2799C489.062 71.0799 489.262 70.9199 489.462 70.7999C489.662 70.6399 489.822 70.5399 489.942 70.4999C490.662 70.2999 491.282 70.5999 491.802 71.3999C492.002 71.7599 492.042 72.1799 491.922 72.6599C491.802 73.1399 491.582 73.7399 491.262 74.4599L490.842 75.6599L493.002 75.1799C493.362 75.1799 493.802 75.1999 494.322 75.2399C494.882 75.2399 495.422 75.2399 495.942 75.2399C496.462 75.2399 496.842 75.2799 497.082 75.3599C498.042 75.3999 498.702 75.5799 499.062 75.8999C499.462 76.2199 499.802 76.6399 500.082 77.1599C500.282 77.3599 500.522 77.6399 500.802 77.9999C501.082 78.3199 501.242 78.6399 501.282 78.9599C501.442 79.6399 501.442 80.3799 501.282 81.1799C501.162 81.9399 500.922 82.6999 500.562 83.4599C500.242 84.2199 499.802 84.9199 499.242 85.5599C498.722 86.1599 498.162 86.6599 497.562 87.0599C497.162 87.2199 496.802 87.3999 496.482 87.5999C496.162 87.7599 496.002 87.8399 496.002 87.8399C495.962 88.0399 495.522 88.3599 494.682 88.7999C493.842 89.1999 492.882 89.5799 491.802 89.9399C490.722 90.2999 489.782 90.5399 488.982 90.6599C488.702 90.6999 488.302 90.7399 487.782 90.7799C487.262 90.8199 486.862 90.7599 486.582 90.5999C486.142 90.5199 485.842 90.4799 485.682 90.4799C485.522 90.4799 485.442 90.5599 485.442 90.7199C485.402 90.7999 485.122 91.6399 484.602 93.2399C484.082 94.8399 483.542 96.6999 482.982 98.8199C482.222 101.14 481.602 102.98 481.122 104.34C480.642 105.74 480.262 106.78 479.982 107.46C479.742 108.14 479.562 108.6 479.442 108.84C479.322 109.12 479.222 109.3 479.142 109.38ZM486.642 87.2399C486.762 87.4799 487.142 87.5599 487.782 87.4799C488.462 87.3599 489.262 87.1199 490.182 86.7599C491.142 86.3599 492.082 85.9199 493.002 85.4399C493.922 84.9199 494.682 84.3999 495.282 83.8799C496.162 82.8799 496.882 81.9599 497.442 81.1199C498.002 80.2399 498.082 79.6599 497.682 79.3799C497.242 78.7399 496.422 78.4399 495.222 78.4799C494.022 78.5199 492.542 79.0199 490.782 79.9799C490.102 80.2199 489.582 80.5399 489.222 80.9399C488.902 81.2999 488.622 81.7599 488.382 82.3199C488.142 82.8799 487.842 83.5599 487.482 84.3599C487.122 85.2399 486.882 85.8999 486.762 86.3399C486.642 86.7799 486.602 87.0799 486.642 87.2399Z" fill="white"/>
<path d="M504.877 93.8399C504.717 93.5199 504.517 93.2799 504.277 93.1199C504.037 92.9199 503.917 92.7399 503.917 92.5799C503.917 92.4199 503.897 92.2599 503.857 92.0999C503.857 91.8999 503.777 91.7199 503.617 91.5599C503.417 91.3199 503.437 90.7799 503.677 89.9399C503.917 89.0599 504.317 87.9999 504.877 86.7599C505.437 85.4799 506.097 84.1399 506.857 82.7399C507.177 82.4199 507.497 81.9999 507.817 81.4799C508.137 80.9599 508.377 80.6199 508.537 80.4599C508.537 80.2999 508.597 80.1599 508.717 80.0399C508.837 79.8799 508.977 79.7999 509.137 79.7999V79.4399C509.137 79.2399 509.317 78.8999 509.677 78.4199C510.077 77.9399 510.557 77.4199 511.117 76.8599C511.677 76.2599 512.257 75.6999 512.857 75.1799C513.457 74.6199 513.957 74.2199 514.357 73.9799C515.197 73.4199 516.057 73.0799 516.937 72.9599C517.857 72.8399 518.637 73.0399 519.277 73.5599C519.397 73.6799 519.597 73.8799 519.877 74.1599C520.157 74.4399 520.477 74.7599 520.837 75.1199C521.237 75.4399 521.637 75.7799 522.037 76.1399L524.257 78.1199L523.177 81.1199C522.657 82.7199 522.517 84.1199 522.757 85.3199C523.037 86.5199 523.437 87.5599 523.957 88.4399C524.157 88.8799 524.557 89.2999 525.157 89.6999C525.797 90.0999 526.397 90.3399 526.957 90.4199C527.277 90.4599 527.577 90.5799 527.857 90.7799C528.137 90.9799 528.277 91.2999 528.277 91.7399C528.277 92.1399 528.197 92.4599 528.037 92.6999C527.877 92.9399 527.597 93.0999 527.197 93.1799C525.877 93.3399 524.637 93.0199 523.477 92.2199C522.357 91.4199 521.317 90.0999 520.357 88.2599C520.197 88.0199 519.977 87.5799 519.697 86.9399C519.457 86.2599 519.317 85.8199 519.277 85.6199C519.117 85.8199 518.817 86.1999 518.377 86.7599C517.937 87.2799 517.597 87.6599 517.357 87.8999C514.517 90.7799 512.057 92.7199 509.977 93.7199C507.937 94.6799 506.237 94.7199 504.877 93.8399ZM507.037 90.4799C507.037 90.7599 507.457 90.7599 508.297 90.4799C509.177 90.1599 510.117 89.5999 511.117 88.7999C512.477 87.6399 513.837 86.3599 515.197 84.9599C516.597 83.5599 517.717 82.2599 518.557 81.0599L519.877 78.8999C519.477 77.9799 519.037 77.3599 518.557 77.0399C518.117 76.6799 517.737 76.4999 517.417 76.4999C516.897 76.4999 516.117 76.9799 515.077 77.9399C514.077 78.8999 512.997 80.1799 511.837 81.7799C510.677 83.3799 509.577 85.1399 508.537 87.0599C508.137 87.8599 507.777 88.6399 507.457 89.3999C507.177 90.1199 507.037 90.4799 507.037 90.4799Z" fill="white"/>
<path d="M543.369 75.2399C543.409 75.4399 543.389 75.8799 543.309 76.5599C543.269 77.1999 543.189 77.8399 543.069 78.4799C542.989 79.0799 542.909 79.4799 542.829 79.6799C542.509 80.3999 542.269 81.1399 542.109 81.8999C541.989 82.6599 541.749 83.4399 541.389 84.2399C540.869 83.7999 540.209 83.3799 539.409 82.9799C538.649 82.5799 537.969 82.1799 537.369 81.7799C536.969 81.4599 536.669 81.1399 536.469 80.8199C536.309 80.4599 536.229 80.0999 536.229 79.7399C536.269 79.1399 536.449 78.5599 536.769 77.9999C537.089 77.4399 537.489 76.9399 537.969 76.4999C538.449 76.0199 538.929 75.6599 539.409 75.4199C539.849 75.2199 540.489 75.1399 541.329 75.1799C542.209 75.2199 542.889 75.2399 543.369 75.2399ZM541.329 95.9999C541.769 95.7999 542.109 95.6199 542.349 95.4599C542.589 95.2599 542.729 94.8599 542.769 94.2599C542.809 93.8999 542.889 93.5399 543.009 93.1799C543.169 92.7799 543.209 92.3999 543.129 92.0399C543.409 91.3199 543.749 90.2199 544.149 88.7399C544.589 87.2599 545.009 85.6399 545.409 83.8799C545.849 82.1199 546.209 80.4799 546.489 78.9599C546.769 77.3999 546.909 76.2399 546.909 75.4799C546.909 74.6799 546.729 74.0599 546.369 73.6199C546.009 73.1799 545.489 72.7999 544.809 72.4799C544.289 72.4799 543.789 72.4799 543.309 72.4799C542.829 72.4799 542.329 72.4599 541.809 72.4199C541.129 72.3399 540.389 72.3799 539.589 72.5399C538.789 72.6599 538.049 72.7599 537.369 72.8399C537.289 72.8399 537.209 72.8599 537.129 72.8999C537.049 72.9399 536.969 72.9999 536.889 73.0799C536.249 73.4399 535.749 73.7399 535.389 73.9799C535.029 74.2199 534.729 74.4599 534.489 74.6999C534.129 75.0599 533.869 75.4799 533.709 75.9599C533.589 76.4399 533.349 77.1999 532.989 78.2399C532.829 78.6799 532.749 79.0999 532.749 79.4999C532.789 79.8999 532.869 80.3199 532.989 80.7599C533.309 81.7199 533.649 82.4199 534.009 82.8599C534.369 83.2599 534.829 83.6599 535.389 84.0599C535.709 84.1799 536.029 84.3199 536.349 84.4799C536.669 84.5999 536.969 84.7199 537.249 84.8399C536.609 85.2799 535.789 85.8399 534.789 86.5199C533.789 87.1599 532.829 87.7399 531.909 88.2599C530.989 88.7799 530.269 89.1199 529.749 89.2799C529.309 89.3999 528.909 89.5799 528.549 89.8199C528.229 90.0599 527.929 90.3799 527.649 90.7799C527.769 91.4199 527.969 92.0199 528.249 92.5799C528.569 93.0999 529.089 93.3799 529.809 93.4199C529.889 93.4199 530.249 93.2199 530.889 92.8199C531.569 92.4199 532.329 91.9599 533.169 91.4399C534.009 90.8799 534.769 90.3799 535.449 89.9399C536.169 89.4599 536.629 89.1599 536.829 89.0399C536.989 88.9199 537.369 88.6599 537.969 88.2599C538.569 87.8199 539.129 87.4599 539.649 87.1799C539.929 87.0199 540.169 86.9199 540.369 86.8799C540.569 86.8399 540.689 86.8799 540.729 86.9999C540.449 88.2399 540.129 89.5199 539.769 90.8399C539.449 92.1199 539.329 93.4199 539.409 94.7399C539.729 94.9399 540.049 95.1599 540.369 95.3999C540.689 95.5999 541.009 95.7999 541.329 95.9999Z" fill="white"/>
<path d="M566.742 95.8199C566.582 95.8199 566.362 95.7999 566.082 95.7599C565.842 95.7199 565.642 95.6199 565.482 95.4599C565.322 95.4599 565.042 95.3999 564.642 95.2799C564.242 95.1599 563.882 95.0199 563.562 94.8599C563.162 94.6999 562.622 94.3799 561.942 93.8999C561.262 93.3799 560.582 92.8199 559.902 92.2199C559.222 91.6199 558.642 91.0599 558.162 90.5399C557.722 90.0199 557.502 89.6399 557.502 89.3999C557.502 89.1999 557.402 89.0999 557.202 89.0999C557.202 89.0999 557.142 89.0399 557.022 88.9199C556.902 88.7599 556.842 88.5999 556.842 88.4399C556.842 88.0399 556.642 87.8399 556.242 87.8399C556.242 87.8399 555.902 88.1199 555.222 88.6799C554.542 89.2399 553.802 89.9199 553.002 90.7199C551.882 91.8399 551.042 92.6599 550.482 93.1799C549.962 93.6599 549.542 93.8999 549.222 93.8999C548.902 93.8999 548.542 93.7799 548.142 93.5399C547.742 93.2999 547.382 93.0199 547.062 92.6999C546.782 92.3399 546.642 91.9999 546.642 91.6799C546.642 91.6799 547.042 91.2199 547.842 90.2999C548.682 89.3799 549.662 88.4399 550.782 87.4799L554.622 83.6999L553.962 81.4199C553.682 80.7799 553.382 80.1199 553.062 79.4399C552.782 78.7199 552.562 78.1199 552.402 77.6399C551.922 76.9599 551.662 76.5399 551.622 76.3799C551.622 76.1799 551.782 75.8399 552.102 75.3599C552.422 75.0399 552.682 74.8399 552.882 74.7599C553.122 74.6399 553.482 74.7399 553.962 75.0599C554.202 75.0599 554.522 75.3999 554.922 76.0799C555.322 76.7199 555.682 77.4399 556.002 78.2399C556.362 78.9999 556.542 79.5399 556.542 79.8599C556.542 80.4999 556.782 80.7599 557.262 80.6399C557.742 80.5199 558.462 80.1399 559.422 79.4999C559.902 79.0599 560.282 78.6999 560.562 78.4199C560.842 78.0999 560.982 77.9399 560.982 77.9399C561.102 77.8199 561.462 77.5599 562.062 77.1599C562.662 76.7199 563.282 76.2799 563.922 75.8399C564.562 75.3999 564.982 75.1399 565.182 75.0599C565.502 74.8199 565.862 74.8199 566.262 75.0599C566.662 75.2599 567.002 75.5799 567.282 76.0199C567.562 76.4199 567.702 76.8399 567.702 77.2799C567.702 77.7599 567.582 78.1399 567.342 78.4199C567.102 78.6999 566.582 79.0599 565.782 79.4999C565.062 80.0199 564.422 80.4799 563.862 80.8799C563.342 81.2799 562.782 81.7199 562.182 82.1999C561.622 82.6399 560.902 83.2399 560.022 83.9999L558.462 85.2599L559.422 86.8799C559.582 87.1599 559.802 87.5599 560.082 88.0799C560.402 88.5999 560.702 88.9399 560.982 89.0999C561.222 89.4199 561.682 89.8599 562.362 90.4199C563.042 90.9799 563.702 91.4999 564.342 91.9799C565.022 92.4199 565.402 92.6399 565.482 92.6399C565.642 92.6399 565.822 92.6999 566.022 92.8199C566.222 92.9399 566.462 93.0799 566.742 93.2399C567.062 93.5599 567.262 93.9199 567.342 94.3199C567.462 94.7199 567.462 95.0799 567.342 95.3999C567.262 95.6799 567.062 95.8199 566.742 95.8199Z" fill="white"/>
<path d="M575.668 85.7999C574.548 85.9999 573.808 85.4599 573.448 84.1799C573.088 82.8999 573.188 81.1399 573.748 78.8999C573.988 78.4199 574.188 77.9599 574.348 77.5199C574.508 77.0399 574.588 76.6599 574.588 76.3799C574.748 75.8599 574.948 75.2599 575.188 74.5799C575.468 73.8599 575.748 73.1999 576.028 72.5999C576.308 71.9599 576.508 71.5399 576.628 71.3399C576.788 71.3399 576.948 71.1999 577.108 70.9199C577.308 70.6399 577.408 70.3599 577.408 70.0799C577.408 69.7599 577.468 69.3999 577.588 68.9999C577.748 68.5999 577.908 68.3199 578.068 68.1599C578.068 67.9599 578.148 67.7399 578.308 67.4999C578.468 67.2599 578.548 67.0599 578.548 66.8999C578.548 66.7399 578.588 66.5999 578.668 66.4799C578.788 66.3599 578.848 66.2199 578.848 66.0599C579.208 65.4199 579.668 64.4799 580.228 63.2399C580.828 61.9599 581.408 60.6199 581.968 59.2199C582.568 57.8199 583.068 56.5799 583.468 55.4999C583.868 54.4199 584.068 53.7599 584.068 53.5199C584.148 53.1999 584.268 52.9599 584.428 52.7999C584.588 52.6399 584.828 52.5999 585.148 52.6799C585.308 52.5599 585.468 52.4999 585.628 52.4999C585.788 52.4599 585.948 52.4399 586.108 52.4399C586.108 52.4399 586.168 52.5199 586.288 52.6799C586.448 52.8399 586.668 53.0799 586.948 53.3999C587.268 53.6799 587.448 53.9999 587.488 54.3599C587.528 54.7199 587.548 55.1399 587.548 55.6199C587.508 56.3799 587.228 57.2399 586.708 58.1999C586.188 59.1599 585.608 60.2199 584.968 61.3799C584.568 62.1399 584.168 62.8599 583.768 63.5399C583.408 64.2199 583.228 64.6399 583.228 64.7999C583.228 64.9599 583.148 65.1999 582.988 65.5199C582.828 65.8399 582.648 66.2399 582.448 66.7199C582.208 67.1199 581.948 67.5999 581.668 68.1599C581.388 68.7199 581.128 69.2399 580.888 69.7199C580.688 70.1599 580.588 70.4399 580.588 70.5599C580.548 70.7199 580.488 70.8799 580.408 71.0399C580.368 71.1999 580.268 71.3599 580.108 71.5199C579.948 71.5199 579.848 71.6399 579.808 71.8799C579.808 72.0799 579.808 72.1799 579.808 72.1799C579.808 72.3399 579.708 72.7199 579.508 73.3199C579.348 73.8799 579.068 74.5599 578.668 75.3599C577.908 77.4799 577.368 79.1799 577.048 80.4599C576.728 81.6999 576.528 82.7599 576.448 83.6399C576.368 84.5999 576.288 85.1599 576.208 85.3199C576.168 85.4799 575.988 85.6399 575.668 85.7999ZM572.428 95.3999C571.668 95.6799 571.028 95.8199 570.508 95.8199C570.028 95.7799 569.488 95.5399 568.888 95.0999C568.128 94.3799 567.868 93.6599 568.108 92.9399C568.388 92.1799 569.048 91.4399 570.088 90.7199C570.808 90.2799 571.328 90.0399 571.648 89.9999C572.008 89.9599 572.548 90.0999 573.268 90.4199C574.468 91.1799 574.988 92.0199 574.828 92.9399C574.708 93.8599 573.908 94.6799 572.428 95.3999Z" fill="white"/>
<defs>
<filter id="filter0_bdii_663_35462" x="0" y="0" width="1178" height="372" filterUnits="userSpaceOnUse" color-interpolation-filters="sRGB">
<feFlood flood-opacity="0" result="BackgroundImageFix"/>
<feGaussianBlur in="BackgroundImageFix" stdDeviation="2"/>
<feComposite in2="SourceAlpha" operator="in" result="effect1_backgroundBlur_663_35462"/>
<feColorMatrix in="SourceAlpha" type="matrix" values="0 0 0 0 0 0 0 0 0 0 0 0 0 0 0 0 0 0 127 0" result="hardAlpha"/>
<feOffset dy="4"/>
<feGaussianBlur stdDeviation="60"/>
<feComposite in2="hardAlpha" operator="out"/>
<feColorMatrix type="matrix" values="0 0 0 0 0.00784314 0 0 0 0 0.0117647 0 0 0 0 0.027451 0 0 0 0.5 0"/>
<feBlend mode="normal" in2="effect1_backgroundBlur_663_35462" result="effect2_dropShadow_663_35462"/>
<feBlend mode="normal" in="SourceGraphic" in2="effect2_dropShadow_663_35462" result="shape"/>
<feColorMatrix in="SourceAlpha" type="matrix" values="0 0 0 0 0 0 0 0 0 0 0 0 0 0 0 0 0 0 127 0" result="hardAlpha"/>
<feOffset dx="1" dy="2"/>
<feGaussianBlur stdDeviation="2"/>
<feComposite in2="hardAlpha" operator="arithmetic" k2="-1" k3="1"/>
<feColorMatrix type="matrix" values="0 0 0 0 1 0 0 0 0 1 0 0 0 0 1 0 0 0 0.36 0"/>
<feBlend mode="normal" in2="shape" result="effect3_innerShadow_663_35462"/>
<feColorMatrix in="SourceAlpha" type="matrix" values="0 0 0 0 0 0 0 0 0 0 0 0 0 0 0 0 0 0 127 0" result="hardAlpha"/>
<feOffset dx="-1" dy="-2"/>
<feGaussianBlur stdDeviation="4"/>
<feComposite in2="hardAlpha" operator="arithmetic" k2="-1" k3="1"/>
<feColorMatrix type="matrix" values="0 0 0 0 0.00392157 0 0 0 0 0.0313725 0 0 0 0 0.0392157 0 0 0 0.34 0"/>
<feBlend mode="normal" in2="effect3_innerShadow_663_35462" result="effect4_innerShadow_663_35462"/>
</filter>
<linearGradient id="paint0_linear_663_35462" x1="589" y1="341" x2="589" y2="209" gradientUnits="userSpaceOnUse">
<stop stop-color="white" stop-opacity="0"/>
<stop offset="1" stop-color="white"/>
</linearGradient>
<linearGradient id="paint1_linear_663_35462" x1="589" y1="341" x2="589" y2="209" gradientUnits="userSpaceOnUse">
<stop stop-color="white" stop-opacity="0"/>
<stop offset="1" stop-color="white"/>
</linearGradient>
<linearGradient id="paint2_linear_663_35462" x1="589" y1="341" x2="589" y2="209" gradientUnits="userSpaceOnUse">
<stop stop-color="white" stop-opacity="0"/>
<stop offset="1" stop-color="white"/>
</linearGradient>
<linearGradient id="paint3_linear_663_35462" x1="589" y1="341" x2="589" y2="209" gradientUnits="userSpaceOnUse">
<stop stop-color="white" stop-opacity="0"/>
<stop offset="1" stop-color="white"/>
</linearGradient>
<linearGradient id="paint4_linear_663_35462" x1="589" y1="341" x2="589" y2="209" gradientUnits="userSpaceOnUse">
<stop stop-color="white" stop-opacity="0"/>
<stop offset="1" stop-color="white"/>
</linearGradient>
<linearGradient id="paint5_linear_663_35462" x1="589" y1="341" x2="589" y2="209" gradientUnits="userSpaceOnUse">
<stop stop-color="white" stop-opacity="0"/>
<stop offset="1" stop-color="white"/>
</linearGradient>
<linearGradient id="paint6_linear_663_35462" x1="589" y1="341" x2="589" y2="209" gradientUnits="userSpaceOnUse">
<stop stop-color="white" stop-opacity="0"/>
<stop offset="1" stop-color="white"/>
</linearGradient>
<linearGradient id="paint7_linear_663_35462" x1="589" y1="341" x2="589" y2="209" gradientUnits="userSpaceOnUse">
<stop stop-color="white" stop-opacity="0"/>
<stop offset="1" stop-color="white"/>
</linearGradient>
<linearGradient id="paint8_linear_663_35462" x1="589" y1="341" x2="589" y2="209" gradientUnits="userSpaceOnUse">
<stop stop-color="white" stop-opacity="0"/>
<stop offset="1" stop-color="white"/>
</linearGradient>
<linearGradient id="paint9_linear_663_35462" x1="589" y1="341" x2="589" y2="209" gradientUnits="userSpaceOnUse">
<stop stop-color="white" stop-opacity="0"/>
<stop offset="1" stop-color="white"/>
</linearGradient>
<linearGradient id="paint10_linear_663_35462" x1="589" y1="341" x2="589" y2="209" gradientUnits="userSpaceOnUse">
<stop stop-color="white" stop-opacity="0"/>
<stop offset="1" stop-color="white"/>
</linearGradient>
</defs>
</svg>
