<svg width="20" height="212" viewBox="0 0 20 212" fill="none" xmlns="http://www.w3.org/2000/svg">
<path d="M10.0135 3.30172e-05L9.98653 0C8.64514 0.0328765 8.43333 2.50422 8.43333 2.50422L7.90306 6.84902L4.81362 8.95463C4.6434 8.05025 4.21262 7.40775 3.70781 7.40775C3.05397 7.40775 2.52395 8.48506 2.52395 9.81388C2.52378 10.0378 2.53941 10.2615 2.57073 10.4833L0.198566 12.1L0 14.5242L7.98198 11.6369L8.71267 19.1907L6.11841 20.9217L6.11762 22L13.8825 21.9999L13.8816 20.9217L11.2873 19.1906L12.0181 11.6368L20 14.5241L19.8014 12.0999L17.4293 10.4832C17.4606 10.2614 17.4763 10.0377 17.4761 9.81375C17.4761 8.48493 16.9461 7.40765 16.2923 7.40765C15.7874 7.40769 15.3566 8.05025 15.1864 8.95459L12.097 6.84902L11.5667 2.50419C11.5667 2.50419 11.3549 0.0328089 10.0135 3.30172e-05Z" fill="#848F96"/>
<path d="M10 212L10 22" stroke="#848F96" stroke-linejoin="round" stroke-dasharray="6 6"/>
</svg>
