<svg width="18" height="18" viewBox="0 0 18 18" fill="none" xmlns="http://www.w3.org/2000/svg">
<path d="M2.15918 6.02687V12.8821C2.15918 14.2207 3.11032 14.7703 4.26577 14.108L5.92145 13.1639C6.28077 12.9596 6.87963 12.9385 7.25304 13.1287L10.9519 14.9816C11.3253 15.1648 11.9242 15.1507 12.2835 14.9464L15.3342 13.1991C15.7217 12.9737 16.0458 12.4241 16.0458 11.9732V5.118C16.0458 3.77937 15.0946 3.22982 13.9392 3.89209L12.2835 4.83619C11.9242 5.0405 11.3253 5.06164 10.9519 4.87141L7.25304 3.0255C6.87963 2.84232 6.28077 2.85641 5.92145 3.06073L2.87077 4.808C2.47623 5.03346 2.15918 5.583 2.15918 6.02687Z" stroke="white" stroke-width="1.2" stroke-linecap="round" stroke-linejoin="round"/>
<path d="M6.57715 3.36353V12.5226" stroke="white" stroke-width="1.2" stroke-linecap="round" stroke-linejoin="round"/>
<path d="M11.6279 5.20947V14.6363" stroke="white" stroke-width="1.2" stroke-linecap="round" stroke-linejoin="round"/>
</svg>
