<svg width="44" height="44" viewBox="0 0 44 44" fill="none" xmlns="http://www.w3.org/2000/svg">
<g clip-path="url(#clip0_957_34905)">
<path d="M38 0H6C2.68629 0 0 2.68629 0 6V38C0 41.3137 2.68629 44 6 44H38C41.3137 44 44 41.3137 44 38V6C44 2.68629 41.3137 0 38 0Z" fill="#29A71A"/>
<path d="M31.7003 12.3002C29.4114 9.98842 26.3717 8.5707 23.1295 8.30273C19.8874 8.03476 16.6562 8.93419 14.0188 10.8388C11.3814 12.7434 9.51141 15.5277 8.74614 18.6896C7.98086 21.8516 8.37068 25.1829 9.84527 28.0827L8.39777 35.1102C8.38276 35.1801 8.38233 35.2524 8.39653 35.3225C8.41072 35.3926 8.43923 35.4591 8.48027 35.5177C8.5404 35.6066 8.62622 35.6751 8.72629 35.7139C8.82635 35.7528 8.93589 35.7602 9.04027 35.7352L15.9278 34.1027C18.8194 35.5399 22.1272 35.9047 25.2626 35.132C28.3979 34.3594 31.1575 32.4994 33.0502 29.8831C34.9429 27.2668 35.846 24.0638 35.5988 20.8441C35.3516 17.6245 33.9702 14.5969 31.7003 12.3002ZM29.5528 29.4402C27.9691 31.0194 25.9298 32.0619 23.7222 32.4207C21.5146 32.7795 19.2501 32.4366 17.2478 31.4402L16.2878 30.9652L12.0653 31.9652L12.0778 31.9127L12.9528 27.6627L12.4828 26.7352C11.4597 24.7259 11.0988 22.4443 11.4517 20.2173C11.8047 17.9903 12.8535 15.9321 14.4478 14.3377C16.451 12.335 19.1677 11.21 22.0003 11.21C24.8329 11.21 27.5495 12.335 29.5528 14.3377C29.5698 14.3572 29.5882 14.3756 29.6078 14.3927C31.5862 16.4005 32.6907 19.109 32.6804 21.9278C32.6701 24.7465 31.5458 27.4469 29.5528 29.4402Z" fill="white"/>
<path d="M29.1781 26.3226C28.6606 27.1376 27.8431 28.1351 26.8156 28.3826C25.0156 28.8176 22.2531 28.3976 18.8156 25.1926L18.7731 25.1551C15.7506 22.3526 14.9656 20.0201 15.1556 18.1701C15.2606 17.1201 16.1356 16.1701 16.8731 15.5501C16.9897 15.4506 17.128 15.3798 17.2768 15.3432C17.4257 15.3067 17.5811 15.3055 17.7305 15.3398C17.8799 15.374 18.0192 15.4428 18.1373 15.5405C18.2554 15.6382 18.349 15.7623 18.4106 15.9026L19.5231 18.4026C19.5954 18.5647 19.6222 18.7434 19.6006 18.9196C19.579 19.0958 19.5099 19.2628 19.4006 19.4026L18.8381 20.1326C18.7174 20.2834 18.6446 20.4668 18.629 20.6592C18.6134 20.8517 18.6557 21.0444 18.7506 21.2126C19.0656 21.7651 19.8206 22.5776 20.6581 23.3301C21.5981 24.1801 22.6406 24.9576 23.3006 25.2226C23.4772 25.2948 23.6714 25.3124 23.8581 25.2732C24.0448 25.234 24.2155 25.1397 24.3481 25.0026L25.0006 24.3451C25.1265 24.221 25.2831 24.1324 25.4544 24.0885C25.6256 24.0446 25.8055 24.0469 25.9756 24.0951L28.6181 24.8451C28.7639 24.8898 28.8975 24.9673 29.0087 25.0716C29.12 25.1758 29.2059 25.3042 29.2599 25.4467C29.314 25.5893 29.3347 25.7423 29.3205 25.8942C29.3063 26.046 29.2576 26.1925 29.1781 26.3226Z" fill="white"/>
</g>
<defs>
<clipPath id="clip0_957_34905">
<rect width="44" height="44" fill="white"/>
</clipPath>
</defs>
</svg>
