<svg width="44" height="44" viewBox="0 0 44 44" fill="none" xmlns="http://www.w3.org/2000/svg">
<g clip-path="url(#clip0_957_34901)">
<path d="M2.75045 2.99388C-0.70722 6.58538 0.000446677 10.4005 0.000446677 21.9909C0.000446677 31.6159 -1.67889 41.2647 7.11011 43.5362C9.85461 44.242 34.1719 44.2421 36.9128 43.5325C40.5721 42.5884 43.5494 39.6202 43.9564 34.4447C44.0133 33.7224 44.0133 10.2722 43.9546 9.53521C43.5219 4.02238 40.1284 0.845211 35.6569 0.201711C34.6321 0.0532111 34.4268 0.00921104 29.1688 4.43757e-05C10.5183 0.00921104 6.42995 -0.821289 2.75045 2.99388Z" fill="url(#paint0_linear_957_34901)"/>
<path d="M21.9966 5.75494C15.3398 5.75494 9.01848 5.16277 6.60398 11.3594C5.60664 13.9188 5.75148 17.2426 5.75148 22.0019C5.75148 26.1783 5.61764 30.1034 6.60398 32.6426C9.01298 38.8429 15.3856 38.2489 21.993 38.2489C28.3675 38.2489 34.94 38.9126 37.3838 32.6426C38.383 30.0576 38.2363 26.7833 38.2363 22.0019C38.2363 15.6549 38.5865 11.5574 35.5083 8.4811C32.3916 5.36444 28.1768 5.75494 21.9893 5.75494H21.9966ZM20.541 8.68277C34.4266 8.66077 36.194 7.11711 35.2186 28.5616C34.8721 36.1461 29.0971 35.3138 21.9985 35.3138C9.05514 35.3138 8.68298 34.9434 8.68298 21.9946C8.68298 8.89544 9.70964 8.6901 20.541 8.6791V8.68277ZM30.6683 11.3796C30.1515 11.3796 29.6558 11.5849 29.2903 11.9504C28.9248 12.3159 28.7195 12.8116 28.7195 13.3284C28.7195 13.8453 28.9248 14.341 29.2903 14.7065C29.6558 15.0719 30.1515 15.2773 30.6683 15.2773C31.1852 15.2773 31.6809 15.0719 32.0463 14.7065C32.4118 14.341 32.6171 13.8453 32.6171 13.3284C32.6171 12.8116 32.4118 12.3159 32.0463 11.9504C31.6809 11.5849 31.1852 11.3796 30.6683 11.3796ZM21.9966 13.6584C20.9011 13.6586 19.8163 13.8745 18.8041 14.2938C17.792 14.7132 16.8724 15.3278 16.0978 16.1026C14.5335 17.6673 13.6547 19.7893 13.655 22.0019C13.6552 24.2145 14.5344 26.3364 16.0991 27.9008C17.6638 29.4651 19.7859 30.3438 21.9985 30.3436C24.2111 30.3434 26.3329 29.4642 27.8973 27.8995C29.4617 26.3348 30.3404 24.2127 30.3401 22.0001C30.3399 19.7875 29.4607 17.6656 27.896 16.1013C26.3313 14.5369 24.2092 13.6582 21.9966 13.6584ZM21.9966 16.5863C29.1558 16.5863 29.165 27.4176 21.9966 27.4176C14.8393 27.4176 14.8283 16.5863 21.9966 16.5863Z" fill="white"/>
</g>
<defs>
<linearGradient id="paint0_linear_957_34901" x1="2.83482" y1="41.1897" x2="43.7282" y2="5.797" gradientUnits="userSpaceOnUse">
<stop stop-color="#FFDD55"/>
<stop offset="0.5" stop-color="#FF543E"/>
<stop offset="1" stop-color="#C837AB"/>
</linearGradient>
<clipPath id="clip0_957_34901">
<rect width="44" height="44" fill="white"/>
</clipPath>
</defs>
</svg>
