<svg width="44" height="44" viewBox="0 0 44 44" fill="none" xmlns="http://www.w3.org/2000/svg">
<g clip-path="url(#clip0_957_34912)">
<path d="M38 0H6C2.68629 0 0 2.68629 0 6V38C0 41.3137 2.68629 44 6 44H38C41.3137 44 44 41.3137 44 38V6C44 2.68629 41.3137 0 38 0Z" fill="#1C8ADB"/>
<path d="M33.985 11.3752L33.53 11.5402L8.83499 20.4377C8.65999 20.4918 8.50789 20.6025 8.40253 20.7523C8.29717 20.9022 8.24451 21.0827 8.2528 21.2657C8.26109 21.4487 8.32987 21.6238 8.44835 21.7635C8.56683 21.9032 8.72831 21.9996 8.90749 22.0377L15.3 23.7877L16.4925 27.2877L17.685 30.7877C17.7535 30.9593 17.8628 31.1115 18.0035 31.2313C18.1442 31.351 18.3121 31.4346 18.4924 31.4747C18.6727 31.5149 18.8601 31.5104 19.0383 31.4617C19.2165 31.413 19.3802 31.3215 19.515 31.1952L22.8175 28.0752L29.3025 32.4727C30.095 33.0127 31.225 32.6127 31.4275 31.7227L35.7225 12.7452C35.9325 11.8052 34.9425 11.0327 33.985 11.3752ZM30.8325 15.5877L19.675 24.7077L19.15 25.1377C19.0347 25.2291 18.9594 25.3618 18.94 25.5077L18.8225 26.4777L18.5 29.2027C18.5026 29.2359 18.492 29.2687 18.4704 29.294C18.4489 29.3193 18.4181 29.3351 18.385 29.3377C18.3518 29.3404 18.319 29.3297 18.2937 29.3082C18.2684 29.2866 18.2526 29.2559 18.25 29.2227L17.3425 26.5002L16.405 23.7127C16.3653 23.5874 16.3706 23.4522 16.4199 23.3304C16.4692 23.2085 16.5594 23.1077 16.675 23.0452L28.285 16.3902L30.47 15.1402C30.7875 14.9552 31.1125 15.3577 30.8325 15.5877Z" fill="white"/>
</g>
<defs>
<clipPath id="clip0_957_34912">
<rect width="44" height="44" fill="white"/>
</clipPath>
</defs>
</svg>
