<svg width="24" height="16" viewBox="0 0 24 16" fill="none" xmlns="http://www.w3.org/2000/svg">
<path d="M23.0769 13.9002L0.923077 13.9002C0.418462 13.9002 0 14.3082 0 14.8002C0 15.2922 0.418462 15.7002 0.923077 15.7002L23.0769 15.7002C23.5815 15.7002 24 15.2922 24 14.8002C24 14.3082 23.5815 13.9002 23.0769 13.9002Z" fill="#51555B"/>
<path d="M23.0769 7.10039L0.923077 7.10039C0.418462 7.10039 0 7.50839 0 8.00039C0 8.49239 0.418462 8.90039 0.923077 8.90039L23.0769 8.90039C23.5815 8.90039 24 8.49239 24 8.00039C24 7.50839 23.5815 7.10039 23.0769 7.10039Z" fill="#51555B"/>
<path d="M23.0769 0.300098L0.923077 0.300098C0.418462 0.300098 0 0.708098 0 1.2001C0 1.6921 0.418462 2.1001 0.923077 2.1001L23.0769 2.1001C23.5815 2.1001 24 1.6921 24 1.2001C24 0.708098 23.5815 0.300098 23.0769 0.300098Z" fill="#51555B"/>
</svg>
