<svg width="38" height="38" viewBox="0 0 38 38" fill="none" xmlns="http://www.w3.org/2000/svg">
<rect x="0.75" y="0.75" width="36.5" height="36.5" rx="18.25" fill="white"/>
<path d="M26.4785 23.7475C26.4785 24.0175 26.4185 24.295 26.291 24.565C26.1635 24.835 25.9985 25.09 25.781 25.33C25.4135 25.735 25.0085 26.0275 24.551 26.215C24.101 26.4025 23.6135 26.5 23.0885 26.5C22.3235 26.5 21.506 26.32 20.6435 25.9525C19.781 25.585 18.9185 25.09 18.0635 24.4675C17.201 23.8375 16.3835 23.14 15.6035 22.3675C14.831 21.5875 14.1335 20.77 13.511 19.915C12.896 19.06 12.401 18.205 12.041 17.3575C11.681 16.5025 11.501 15.685 11.501 14.905C11.501 14.395 11.591 13.9075 11.771 13.4575C11.951 13 12.236 12.58 12.6335 12.205C13.1135 11.7325 13.6385 11.5 14.1935 11.5C14.4035 11.5 14.6135 11.545 14.801 11.635C14.996 11.725 15.1685 11.86 15.3035 12.055L17.0435 14.5075C17.1785 14.695 17.276 14.8675 17.3435 15.0325C17.411 15.19 17.4485 15.3475 17.4485 15.49C17.4485 15.67 17.396 15.85 17.291 16.0225C17.1935 16.195 17.051 16.375 16.871 16.555L16.301 17.1475C16.2185 17.23 16.181 17.3275 16.181 17.4475C16.181 17.5075 16.1885 17.56 16.2035 17.62C16.226 17.68 16.2485 17.725 16.2635 17.77C16.3985 18.0175 16.631 18.34 16.961 18.73C17.2985 19.12 17.6585 19.5175 18.0485 19.915C18.4535 20.3125 18.8435 20.68 19.241 21.0175C19.631 21.3475 19.9535 21.5725 20.2085 21.7075C20.246 21.7225 20.291 21.745 20.3435 21.7675C20.4035 21.79 20.4635 21.7975 20.531 21.7975C20.6585 21.7975 20.756 21.7525 20.8385 21.67L21.4085 21.1075C21.596 20.92 21.776 20.7775 21.9485 20.6875C22.121 20.5825 22.2935 20.53 22.481 20.53C22.6235 20.53 22.7735 20.56 22.9385 20.6275C23.1035 20.695 23.276 20.7925 23.4635 20.92L25.946 22.6825C26.141 22.8175 26.276 22.975 26.3585 23.1625C26.4335 23.35 26.4785 23.5375 26.4785 23.7475Z" stroke="#2569D7" stroke-width="1.35" stroke-miterlimit="10"/>
<path d="M23.876 16.7505C23.876 16.3005 23.5235 15.6105 22.9985 15.048C22.5185 14.5305 21.881 14.1255 21.251 14.1255" stroke="#2569D7" stroke-width="1.35" stroke-linecap="round" stroke-linejoin="round"/>
<path d="M26.501 16.75C26.501 13.8475 24.1535 11.5 21.251 11.5" stroke="#2569D7" stroke-width="1.35" stroke-linecap="round" stroke-linejoin="round"/>
<rect x="0.75" y="0.75" width="36.5" height="36.5" rx="18.25" stroke="#2569D7" stroke-width="1.5"/>
</svg>
