<svg width="22" height="23" viewBox="0 0 22 23" fill="none" xmlns="http://www.w3.org/2000/svg">
<path d="M5.5852 13.0858L5.58511 13.0872M1.83603 10.4686C1.85283 10.3255 1.94029 10.2003 2.06983 10.1336L2.08717 10.1256C2.1271 10.1091 3.07125 9.7222 3.64982 9.64216C3.75953 9.62692 3.87496 9.64814 3.98074 9.70036L5.9238 10.3789C6.30288 10.1868 7.7401 9.45892 9.4331 8.60763L5.43091 6.52941C5.31325 6.4683 5.24473 6.36352 5.24785 6.24914C5.25089 6.13484 5.32487 6.03385 5.44574 5.97899L6.79479 5.36579C6.92424 5.30697 7.12999 5.28373 7.27231 5.31367L13.4205 6.61579C14.6856 5.99 15.7297 5.48255 16.1651 5.29289C16.4847 5.15367 16.8732 5.0835 17.3198 5.0835C18.0568 5.0835 18.9584 5.29227 19.125 5.60037C19.1316 5.61216 19.5715 6.89844 17.0308 8.33792L7.55597 13.0965C7.5465 13.1009 7.32056 13.2124 7.10078 13.2505C6.72885 13.3148 6.3261 13.3335 5.91183 13.3335H5.79176C5.73431 13.3335 5.67785 13.3335 5.62237 13.3335H5.58494V13.3205C5.31691 13.3205 5.12001 13.2062 5.08838 13.1846L1.98943 10.8566L1.9821 10.8479C1.87177 10.7538 1.81941 10.6122 1.83603 10.4686Z" stroke="#5EB215" stroke-width="1.5"/>
<rect x="0.34375" y="-0.34375" width="15.8125" height="0.6875" rx="0.34375" transform="matrix(1 0 0 -1 2.75 17.6875)" stroke="#5EB215" stroke-width="0.6875"/>
</svg>
