<svg width="11" height="11" viewBox="0 0 11 11" fill="none" xmlns="http://www.w3.org/2000/svg">
<path d="M5.58689 1.47469L5.58736 1.47563L6.44213 3.18517C6.54542 3.39491 6.71448 3.56872 6.88371 3.69359C7.05382 3.8191 7.26939 3.92861 7.49821 3.96674L7.49846 3.96678L9.0489 4.22438C9.04893 4.22439 9.04896 4.22439 9.049 4.2244C9.04905 4.22441 9.0491 4.22441 9.04915 4.22442C9.45853 4.29271 9.53961 4.44448 9.55014 4.47725C9.56031 4.50889 9.58393 4.67812 9.28917 4.97087L9.28796 4.97208L8.08241 6.17763C7.90539 6.35464 7.79097 6.58653 7.72862 6.80435C7.6662 7.02239 7.64104 7.27839 7.69529 7.5204L7.69528 7.5204L7.69604 7.52371L8.04109 9.01569C8.0411 9.01572 8.04111 9.01575 8.04111 9.01579C8.09927 9.2682 8.10032 9.44571 8.07972 9.55719C8.06974 9.61119 8.05582 9.64369 8.04584 9.66127C8.03651 9.67768 8.02975 9.68284 8.02779 9.68427C8.0258 9.68572 8.01866 9.69069 7.99979 9.69464C7.97963 9.69886 7.94401 9.70222 7.88909 9.69526C7.77583 9.68091 7.60635 9.62584 7.38303 9.49398C7.383 9.49396 7.38298 9.49395 7.38295 9.49393C7.38284 9.49387 7.38273 9.4938 7.38262 9.49374L5.92975 8.63368C5.92969 8.63364 5.92962 8.6336 5.92955 8.63356C5.70238 8.499 5.43472 8.44716 5.19542 8.44716C4.9556 8.44716 4.68856 8.4992 4.4609 8.63165L4.4609 8.63164L4.45765 8.63356L3.00417 9.49398L3.0037 9.49426C2.78199 9.62584 2.61353 9.68042 2.50101 9.69447C2.44647 9.70128 2.41092 9.69789 2.39061 9.69358C2.37156 9.68955 2.36394 9.68442 2.36141 9.68257C2.35888 9.68073 2.35176 9.67511 2.34221 9.65836C2.33202 9.6405 2.31803 9.6079 2.30798 9.55413C2.28724 9.44318 2.28803 9.26669 2.34601 9.01613L2.34602 9.01607L2.69116 7.52371L2.69117 7.52371L2.69191 7.5204C2.74615 7.27839 2.721 7.02239 2.65858 6.80435C2.59623 6.58653 2.4818 6.35464 2.30479 6.17763L1.09924 4.97208C0.806378 4.67922 0.828693 4.50917 0.839176 4.47634C0.849505 4.44399 0.92917 4.29263 1.33805 4.22442C1.33813 4.22441 1.33822 4.2244 1.3383 4.22438L2.88874 3.96678L2.88874 3.96679L2.8905 3.96649C3.11739 3.92796 3.33158 3.8179 3.50017 3.69289C3.66815 3.56835 3.83699 3.39476 3.94021 3.18517L4.79451 1.47656C4.79459 1.4764 4.79467 1.47625 4.79475 1.47609C4.99185 1.08419 5.16476 1.05566 5.19299 1.05566C5.22033 1.05566 5.39212 1.0831 5.58689 1.47469Z" fill="#FDB022" stroke="#FDB022" stroke-linecap="round" stroke-linejoin="round"/>
</svg>
