<svg width="16" height="16" viewBox="0 0 16 16" fill="none" xmlns="http://www.w3.org/2000/svg">
<path d="M8.00033 12.3332C10.3936 12.3332 12.3337 10.3931 12.3337 7.99984C12.3337 5.6066 10.3936 3.6665 8.00033 3.6665C5.60709 3.6665 3.66699 5.6066 3.66699 7.99984C3.66699 10.3931 5.60709 12.3332 8.00033 12.3332Z" stroke="#2569D7" stroke-width="1.5" stroke-linecap="round" stroke-linejoin="round"/>
<path d="M12.7597 12.7602L12.673 12.6735M12.673 3.32683L12.7597 3.24016L12.673 3.32683ZM3.23967 12.7602L3.32634 12.6735L3.23967 12.7602ZM7.99967 1.38683V1.3335V1.38683ZM7.99967 14.6668V14.6135V14.6668ZM1.38634 8.00016H1.33301H1.38634ZM14.6663 8.00016H14.613H14.6663ZM3.32634 3.32683L3.23967 3.24016L3.32634 3.32683Z" stroke="#2569D7" stroke-width="2" stroke-linecap="round" stroke-linejoin="round"/>
</svg>
