<svg width="24" height="24" viewBox="0 0 24 24" fill="none" xmlns="http://www.w3.org/2000/svg">
<g clip-path="url(#clip0_673_37083)">
<path d="M18.0065 14.4481L16.7346 13.1762C16.3876 12.8292 15.908 12.6553 15.4196 12.6992C14.9309 12.7431 14.4902 12.9994 14.2105 13.4025L13.7675 14.041C13.1649 13.9336 11.9993 13.6298 11.1845 12.815C10.3694 11.9998 10.0656 10.8337 9.95849 10.2321L10.5971 9.78894C11.0002 9.50919 11.2566 9.06843 11.3003 8.57971C11.3442 8.09099 11.1703 7.61174 10.8233 7.26486L9.55143 5.99296C9.0403 5.48188 8.26991 5.35991 7.63429 5.68925C6.51979 6.26666 5.78769 7.349 5.57263 8.73688C5.22233 10.9981 6.26769 13.6657 8.30071 15.6988C10.0738 17.4718 12.3295 18.4936 14.3773 18.4936C14.6776 18.4936 14.9735 18.4716 15.2625 18.4269C16.6505 18.2119 17.7328 17.4797 18.3102 16.3653C18.3102 16.3653 18.3102 16.3653 18.3103 16.3653C18.6396 15.7296 18.5175 14.9592 18.0065 14.4481ZM17.0161 15.6948C16.5572 16.5804 15.6879 16.8861 15.0395 16.9865C13.2566 17.2626 11.0159 16.3527 9.3313 14.6681C7.64675 12.9835 6.73672 10.743 7.01291 8.96C7.11332 8.31154 7.41904 7.44229 8.30469 6.98338C8.32869 6.971 8.35522 6.96496 8.38213 6.96496C8.43163 6.96496 8.48244 6.98535 8.52069 7.02355L9.79265 8.2955C9.84547 8.34843 9.85222 8.40852 9.84852 8.44963C9.84482 8.49079 9.82757 8.54872 9.76607 8.59138L8.7614 9.2885C8.5513 9.43429 8.43294 9.67963 8.44968 9.93482C8.456 10.0312 8.62176 12.3134 10.1538 13.8455C11.6859 15.3776 13.9681 15.5435 14.0645 15.5497C14.3195 15.5661 14.5651 15.4481 14.7109 15.2379L15.408 14.2333C15.4506 14.1718 15.5086 14.1546 15.5497 14.1508C15.5909 14.147 15.6509 14.1539 15.7039 14.2068L16.9758 15.4786C17.0349 15.5377 17.0514 15.6266 17.0161 15.6948Z" fill="white"/>
<path d="M20.4851 3.51487C18.2185 1.24823 15.205 0 11.9995 0C8.79401 0 5.78051 1.24823 3.51392 3.51483C1.58749 5.44125 0.364526 7.99083 0.0701507 10.6939C-0.208146 13.2493 0.347229 15.8504 1.63573 18.0552L0.385198 22.7222C0.317791 22.9737 0.389698 23.242 0.573869 23.4262C0.757948 23.6102 1.0264 23.6821 1.27774 23.6148L5.94471 22.3643C7.77771 23.4355 9.8847 24 12.0115 24C12.4429 24 12.8751 23.9768 13.306 23.9298C16.0091 23.6355 18.5587 22.4125 20.4851 20.486C22.7517 18.2195 24 15.2059 24 12.0005C24 8.79506 22.7517 5.78147 20.4851 3.51487ZM19.4545 19.4554C15.9702 22.9396 10.6185 23.5588 6.44023 20.9612C6.3236 20.8888 6.19015 20.8514 6.05539 20.8514C5.99229 20.8514 5.92892 20.8596 5.86681 20.8762L2.11976 21.8802L3.12382 18.1332C3.17595 17.9385 3.14515 17.7309 3.03879 17.5598C0.44112 13.3814 1.06034 8.02969 4.54451 4.54547C8.65526 0.434813 15.3438 0.434813 19.4545 4.54547C23.5651 8.65613 23.5651 15.3447 19.4545 19.4554Z" fill="white"/>
</g>
<defs>
<clipPath id="clip0_673_37083">
<rect width="24" height="24" fill="white"/>
</clipPath>
</defs>
</svg>
