<svg width="22" height="23" viewBox="0 0 22 23" fill="none" xmlns="http://www.w3.org/2000/svg">
<path d="M4.26004 8.63376L4.25897 8.63456M3.85177 4.3489C3.96464 4.27372 4.10778 4.26012 4.23463 4.31236L4.25094 4.31991C4.2871 4.33851 5.14022 4.7799 5.55035 5.14612C5.62816 5.21553 5.6833 5.31127 5.71033 5.41897L6.40817 7.22642C6.77708 7.38121 8.17535 7.96843 9.81811 8.66387L8.86898 4.52609C8.84108 4.40444 8.87447 4.2914 8.95842 4.22392C9.04226 4.15642 9.1598 4.14791 9.27284 4.20118L10.5351 4.79504C10.6562 4.85204 10.7983 4.98546 10.8636 5.1058L13.6777 10.3098C14.8979 10.8358 15.8984 11.2754 16.2999 11.4721C16.5945 11.6164 16.8818 11.8523 17.154 12.1727C17.6033 12.7013 18.0032 13.4754 17.8838 13.7827C17.8793 13.7946 17.2248 14.8943 14.6434 13.9494L5.45377 10.054C5.44484 10.0499 5.22714 9.95575 5.06587 9.82129C4.79296 9.59374 4.53404 9.31622 4.28149 9.01906L4.20829 8.93293C4.17327 8.89172 4.13885 8.85122 4.10502 8.81142L4.0822 8.78457L4.09155 8.77663C3.92815 8.58437 3.8901 8.37345 3.88629 8.33761L3.66699 4.69545L3.66878 4.68488C3.66897 4.5484 3.73862 4.42453 3.85177 4.3489Z" stroke="#5EB215" stroke-width="1.5"/>
<rect x="-0.34375" y="0.34375" width="15.8125" height="0.6875" rx="0.34375" transform="matrix(-1 0 0 1 18.5625 17.999)" stroke="#5EB215" stroke-width="0.6875"/>
</svg>
