<svg width="24" height="25" viewBox="0 0 24 25" fill="none" xmlns="http://www.w3.org/2000/svg">
<path d="M15.333 4.1665V6.6665" stroke="#5EB215" stroke-width="1.5" stroke-miterlimit="10" stroke-linecap="round" stroke-linejoin="round"/>
<path d="M8.66699 4.1665V6.6665" stroke="#5EB215" stroke-width="1.5" stroke-miterlimit="10" stroke-linecap="round" stroke-linejoin="round"/>
<path d="M8.66667 5.4165C5.89167 5.5665 4.5 6.62484 4.5 10.5415V15.6915C4.5 19.1248 5.33333 20.8415 9.5 20.8415H14.5C18.6667 20.8415 19.5 19.1248 19.5 15.6915L19.5 10.5415C19.5 6.62484 18.1083 5.57484 15.3333 5.4165L8.66667 5.4165Z" stroke="#5EB215" stroke-width="1.5" stroke-miterlimit="10" stroke-linecap="round" stroke-linejoin="round"/>
<path d="M4.70866 17.167L19.292 17.167" stroke="#5EB215" stroke-width="1.5" stroke-miterlimit="10" stroke-linecap="round" stroke-linejoin="round"/>
<path d="M13.0591 11.7196C13.265 11.5576 13.3913 11.3283 13.3913 11.0167C13.3913 10.6233 13.241 10.3582 13.0181 10.1805C12.7819 9.99212 12.4275 9.875 11.9997 9.875C11.5719 9.875 11.2202 9.99204 10.9866 10.1796C10.766 10.3565 10.6163 10.6216 10.6163 11.0167C10.6163 11.3198 10.7293 11.5388 10.9303 11.7045C10.8128 11.5229 10.7497 11.3073 10.7497 11.075C10.7497 10.7292 10.8865 10.4211 11.1397 10.2074C11.3833 10.0019 11.6942 9.91667 11.9997 9.91667C12.3052 9.91667 12.616 10.0019 12.8596 10.2074C13.1128 10.4211 13.2497 10.7292 13.2497 11.075C13.2497 11.3137 13.183 11.5349 13.0591 11.7196ZM10.5497 13.3917C10.5497 13.1942 10.5914 13.0111 10.6696 12.849C10.5017 13.0369 10.4163 13.2697 10.4163 13.525C10.4163 13.9004 10.5554 14.1718 10.7899 14.3602C11.0368 14.5586 11.4355 14.7 11.9997 14.7C12.5686 14.7 12.9667 14.5583 13.212 14.3607C13.4448 14.1731 13.583 13.9021 13.583 13.525C13.583 13.2733 13.4997 13.044 13.3341 12.8546C13.4097 13.0154 13.4497 13.1966 13.4497 13.3917C13.4497 13.7903 13.2829 14.1319 12.9879 14.3613C12.7075 14.5794 12.3513 14.6667 11.9997 14.6667C11.648 14.6667 11.2918 14.5794 11.0115 14.3613C10.7165 14.1319 10.5497 13.7903 10.5497 13.3917Z" stroke="#5EB215"/>
</svg>
