<svg width="20" height="20" viewBox="0 0 20 20" fill="none" xmlns="http://www.w3.org/2000/svg">
<path d="M2.01172 14.6094L10 10" stroke="#2569D7" stroke-width="1.2" stroke-miterlimit="10" stroke-linecap="round" stroke-linejoin="round"/>
<path d="M2.66113 11.6859L5.67965 12.4947L4.87082 15.5132" stroke="#2569D7" stroke-width="1.2" stroke-miterlimit="10" stroke-linecap="round" stroke-linejoin="round"/>
<path d="M17.9883 5.39062L10 10" stroke="#2569D7" stroke-width="1.2" stroke-miterlimit="10" stroke-linecap="round" stroke-linejoin="round"/>
<path d="M15.1291 4.48715L14.3203 7.50566L17.3388 8.31445" stroke="#2569D7" stroke-width="1.2" stroke-miterlimit="10" stroke-linecap="round" stroke-linejoin="round"/>
<path d="M10 19.2188V10" stroke="#2569D7" stroke-width="1.2" stroke-miterlimit="10" stroke-linecap="round" stroke-linejoin="round"/>
<path d="M7.79004 17.1987L9.99973 14.989L12.2095 17.1987" stroke="#2569D7" stroke-width="1.2" stroke-miterlimit="10" stroke-linecap="round" stroke-linejoin="round"/>
<path d="M10 0.78125V10" stroke="#2569D7" stroke-width="1.2" stroke-miterlimit="10" stroke-linecap="round" stroke-linejoin="round"/>
<path d="M7.79004 2.80154L9.99973 5.01123L12.2095 2.80154" stroke="#2569D7" stroke-width="1.2" stroke-miterlimit="10" stroke-linecap="round" stroke-linejoin="round"/>
<path d="M17.9883 14.6094L10 10" stroke="#2569D7" stroke-width="1.2" stroke-miterlimit="10" stroke-linecap="round" stroke-linejoin="round"/>
<path d="M15.1291 15.5132L14.3203 12.4947L17.3388 11.6859" stroke="#2569D7" stroke-width="1.2" stroke-miterlimit="10" stroke-linecap="round" stroke-linejoin="round"/>
<path d="M2.01172 5.39062L10 10" stroke="#2569D7" stroke-width="1.2" stroke-miterlimit="10" stroke-linecap="round" stroke-linejoin="round"/>
<path d="M2.66113 8.31445L5.67965 7.50563L4.87082 4.48715" stroke="#2569D7" stroke-width="1.2" stroke-miterlimit="10" stroke-linecap="round" stroke-linejoin="round"/>
</svg>
