<svg width="18" height="19" viewBox="0 0 18 19" fill="none" xmlns="http://www.w3.org/2000/svg">
<path d="M2.55 7.67773C2.55 7.37398 2.30376 7.12773 2 7.12773C1.69625 7.12773 1.45 7.37398 1.45 7.67773L2.55 7.67773ZM1.45 18.0054C1.45 18.3092 1.69624 18.5554 2 18.5554C2.30376 18.5554 2.55 18.3092 2.55 18.0054H1.45ZM2.00007 9.71974C1.69632 9.71974 1.45007 9.96599 1.45007 10.2697C1.45007 10.5735 1.69632 10.8197 2.00007 10.8197V9.71974ZM6.60719 12.8483C6.60719 13.1521 6.85343 13.3983 7.15719 13.3983C7.46094 13.3983 7.70719 13.1521 7.70719 12.8483H6.60719ZM2.08213 12.9439V12.3939H1.53213V12.9439H2.08213ZM2.08213 15.8947H1.53213V16.4447H2.08213V15.8947ZM1.45 7.67773L1.45 18.0054H2.55L2.55 7.67773L1.45 7.67773ZM2.00007 10.8197H4.57865V9.71974H2.00007V10.8197ZM4.57865 10.8197C5.69897 10.8197 6.60719 11.7279 6.60719 12.8483H7.70719C7.70719 11.1204 6.3065 9.71974 4.57865 9.71974V10.8197ZM12.5942 12.3939H2.08213V13.4939H12.5942V12.3939ZM1.53213 12.9439V15.8947H2.63213V12.9439H1.53213ZM2.08213 16.4447H15.545V15.3447H2.08213V16.4447ZM14.995 15.8947V18.1077H16.095V15.8947H14.995ZM12.5942 13.4939C13.9202 13.4939 14.995 14.5687 14.995 15.8947H16.095C16.095 13.9612 14.5277 12.3939 12.5942 12.3939V13.4939Z" fill="#5EB215"/>
<path d="M8.212 8.23053V5.99053H6V4.91253H8.212V2.64453H9.374V4.91253H11.586V5.99053H9.374V8.23053H8.212Z" fill="#5EB215"/>
</svg>
