<svg width="21" height="20" viewBox="0 0 21 20" fill="none" xmlns="http://www.w3.org/2000/svg">
<path d="M10.5712 6.38829H8.7002V9.84717H10.5712C11.5248 9.84717 12.3006 9.07135 12.3006 8.11773C12.3006 7.16411 11.5248 6.38829 10.5712 6.38829Z" stroke="#2569D7" stroke-width="1.2" stroke-miterlimit="10" stroke-linecap="round" stroke-linejoin="round"/>
<path d="M10.5705 9.84714H8.69949V6.38826H10.5705C11.5241 6.38826 12.2999 7.16408 12.2999 8.1177C12.2999 9.07132 11.5241 9.84714 10.5705 9.84714ZM10.5705 4.38409H7.6974C7.14395 4.38409 6.69531 4.83276 6.69531 5.38618V15.6157H8.69949V11.8513H10.5705C12.6292 11.8513 14.3041 10.1764 14.3041 8.1177C14.3041 6.05898 12.6292 4.38409 10.5705 4.38409Z" stroke="#2569D7" stroke-width="1.2" stroke-miterlimit="10" stroke-linecap="round" stroke-linejoin="round"/>
<path d="M16.3789 18H4.62109C3.44965 18 2.5 17.0504 2.5 15.8789V4.12109C2.5 2.94964 3.44965 2 4.62109 2H16.3789C17.5504 2 18.5 2.94964 18.5 4.12109V15.8789C18.5 17.0504 17.5504 18 16.3789 18Z" stroke="#2569D7" stroke-width="1.2" stroke-miterlimit="10" stroke-linecap="round" stroke-linejoin="round"/>
</svg>
